<?xml version="1.0" encoding="UTF-8" standalone="no"?>
<svg
   xmlns:dc="http://purl.org/dc/elements/1.1/"
   xmlns:cc="http://creativecommons.org/ns#"
   xmlns:rdf="http://www.w3.org/1999/02/22-rdf-syntax-ns#"
   xmlns:svg="http://www.w3.org/2000/svg"
   xmlns="http://www.w3.org/2000/svg"
   xmlns:sodipodi="http://sodipodi.sourceforge.net/DTD/sodipodi-0.dtd"
   xmlns:inkscape="http://www.inkscape.org/namespaces/inkscape"
   version="1.1"
   width="45cm"
   height="70cm"
   viewBox="0 0 450 699.99998"
   id="svg26"
   sodipodi:docname="unicorn_new_page1.svg"
   inkscape:version="0.92.2 5c3e80d, 2017-08-06">
  <metadata
     id="metadata32">
    <rdf:RDF>
      <cc:Work
         rdf:about="">
        <dc:format>image/svg+xml</dc:format>
        <dc:type
           rdf:resource="http://purl.org/dc/dcmitype/StillImage" />
        <dc:title></dc:title>
      </cc:Work>
    </rdf:RDF>
  </metadata>
  <defs
     id="defs30" />
  <sodipodi:namedview
     pagecolor="#ffffff"
     bordercolor="#666666"
     borderopacity="1"
     objecttolerance="10"
     gridtolerance="10"
     guidetolerance="10"
     inkscape:pageopacity="0"
     inkscape:pageshadow="2"
     inkscape:window-width="1440"
     inkscape:window-height="805"
     id="namedview28"
     showgrid="false"
     inkscape:document-units="cm"
     units="cm"
     inkscape:zoom="0.2102413"
     inkscape:cx="480.08808"
     inkscape:cy="1331.803"
     inkscape:window-x="0"
     inkscape:window-y="1"
     inkscape:window-maximized="1"
     inkscape:current-layer="svg26" />
  <style
     type="text/css"
     id="style2">
    path {
        fill: none;
        stroke-linecap: butt;
        stroke-linejoin: bevel;
        stroke-dasharray: none;
    }
    path.outer {
        stroke: #ff0000;
        stroke-dasharray: none;
        stroke-dashoffset: 0;
        stroke-width: 0.3;
        stroke-opacity: 1.0;
    }
    path.convex {
        stroke: #000000;
        stroke-dasharray: 0.50,1.00;
        stroke-dashoffset:0;
        stroke-width:0.2;
        stroke-opacity: 1.0
    }
    path.concave {
        stroke: #000000;
        stroke-dasharray: none;
        stroke-dashoffset: 0;
        stroke-width: 0.2;
        stroke-opacity: 1.0
    }
    path.freestyle {
        stroke: #000000;
        stroke-dasharray: none;
        stroke-dashoffset: 0;
        stroke-width: 0.2;
        stroke-opacity: 1.0
    }
    path.outer_background {
        stroke: #ffffff;
        stroke-opacity: 1.0;
        stroke-width: 0.5
    }
    path.inner_background {
        stroke: #ffffff;
        stroke-opacity: 1.0;
        stroke-width: 0.2
    }
    path.sticker {
        fill: #ffffff;
        stroke: none;
        fill-opacity: 1.0;
    }
    path.arrow {
        fill: #000;
    }
    text {
        font-style: normal;
        fill: #000000;
        fill-opacity: 1.0;
        stroke: none;
    }
    text, tspan {
        text-anchor:middle;
    }
    </style>
  <g
     id="g24"
     transform="matrix(2.2,0,0,2.2,7.0012462,-0.99194965)"
     style="stroke-width:0.01603535;stroke-miterlimit:4;stroke-dasharray:none">
    <g
       id="g12"
       style="stroke-width:0.01603535;stroke-miterlimit:4;stroke-dasharray:none">
      <path
         class="sticker"
         d="m 124.83305,216.42005 -4.89463,-3.67718 0.2881,-9.85503 5.08222,-2.73941 z m 25.26072,12.25984 4.47574,3.64704 -1.82611,11.30632 -6.28046,7.52687 z m 2.25243,-25.63266 3.55595,16.65246 -0.57489,6.54221 -5.23349,2.43799 z m 29.4463,85.93048 -10.71673,-12.22341 -9.61891,-22.30388 3.44804,-4.6308 z m -56.48376,-88.82928 2.51646,-5.19622 5.71841,-0.41589 3.24184,4.77743 z m 12.78533,26.53415 -5.34308,2.18745 -8.5826,-6.64197 0.66466,-5.80801 z M 126.3317,88.794078 l 0.11075,-6.781802 4.62431,-4.101872 5.4775,1.824915 z m 6.97779,160.714042 -3.57829,-7.30087 2.87698,-13.72511 5.48589,-1.79956 z m 4.91738,-108.75636 -7.13816,-8.77437 -8.98668,-39.253533 4.22967,-3.929779 z m -1.44142,58.56199 -4.47675,-21.32009 0.84821,-34.46106 5.06996,-2.78084 z m 43.02375,-2.6834 5.38205,2.08969 1.512,9.78928 -4.40922,4.20882 z m -11.4918,0.59139 2.62595,-5.14175 5.72595,-0.29467 3.1399,4.84503 z m 13.97663,15.4964 1.37801,5.68119 -7.69507,7.65262 -5.57262,-1.50971 z m -29.0716,-132.29394 5.19753,-2.513781 5.34291,3.62958 0.43547,6.340414 z m 17.18192,144.11804 5.65638,1.15699 4.43576,13.30337 -2.71526,7.66383 z m -6.20601,-136.661827 4.65833,3.410757 -4.12762,37.92764 -6.16764,10.45776 z m -5.63693,51.796157 5.41218,2.01037 5.84571,34.48061 -1.5019,21.05419 z m -15.44223,-53.635333 3.38976,11.893645 v 0 l 2.018,47.546428 z m -8.93023,205.958753 -5.05866,-2.78266 -0.63832,-30.84087 4.81752,-8.86834 z m 43.59228,-45.33356 5.78385,8.03175 2.93264,30.93375 -4.70522,3.34578 z"
         id="path4"
         inkscape:connector-curvature="0"
         style="fill:#ffffff;fill-opacity:1;stroke:none;stroke-linecap:butt;stroke-linejoin:bevel;stroke-dasharray:none;stroke-width:0.01603535;stroke-miterlimit:4" />
      <path
         class="convex"
         d="m 145.99562,85.849474 12.56579,53.827096 m -15.44223,-53.635333 -4.89231,54.710523"
         id="path6"
         inkscape:connector-curvature="0"
         style="fill:none;stroke:#000000;stroke-width:0.01603535;stroke-linecap:butt;stroke-linejoin:bevel;stroke-dasharray:none;stroke-dashoffset:0;stroke-opacity:1;stroke-miterlimit:4" />
      <path
         class="concave"
         d="M 170.40435,224.54224 152.3462,203.04723 m 27.463,-6.41688 -11.4918,0.59139 m -15.9712,5.82549 -15.56075,-3.73348 m 0,0 -11.47671,0.83468 m -0.47569,16.27162 13.26102,10.26253 M 136.54426,79.735319 126.3317,88.794078 m 23.76207,139.885812 2.25243,-25.63266 m -15.56075,-3.73348 1.30862,27.36883 m -12.78533,-26.53415 -0.47569,16.27162 m 1.49865,-127.625972 11.89517,51.957682 m 30.09053,56.46998 2.08695,27.3205 m -18.05815,-21.49501 -14.25213,23.63535 m -1.30862,-27.36883 -11.9524,17.1063 m 21.62989,34.74007 -13.15345,-1.652 m 15.21745,-104.02681 -10.30007,-4.72955 m 32.17748,83.79048 11.88968,-11.8241 m -29.94783,-9.67091 -3.81926,-57.56592 m -10.30007,-4.72955 -1.44142,58.56199 m 6.33373,-113.272513 -16.78748,2.752841 m 22.19524,56.687232 -11.74149,53.83244 m 31.53195,-2.09201 -15.9712,5.82549 m 15.9712,-5.82549 -19.79046,-51.74043 m 10.03447,-5.80474 5.63693,-51.796157 m -26.10427,138.802167 -4.78458,22.82554 m 15.21745,-104.02681 -5.40776,-59.440073 m 27.28517,138.501003 -5.49945,25.27738 m 16.8876,39.15809 -4.01127,-42.31128 m -9.46383,-49.44469 -9.75599,-57.54517 M 164.19834,87.880413 153.22243,80.4242 m 17.18192,144.11804 -12.68461,3.66908 m -11.2568,22.9488 -8.36887,-24.47754 m 20.46734,-87.00601 -10.03447,5.80474 m 29.25429,101.18512 -12.87633,3.15319 m 12.87633,-3.15319 -7.37688,-22.12419 m -37.09486,24.96588 0.87946,42.49187 m 12.27399,-40.83987 3.63083,-22.48023 m -4.09815,-142.830416 18.20272,2.030939 m 4.11906,109.341327 13.97663,15.4964 m -17.38913,37.10148 16.8876,39.15809 m -31.69873,-60.29782 -11.9997,-1.99731 m 44.19996,-13.96444 -2.48483,-16.08779"
         id="path8"
         inkscape:connector-curvature="0"
         style="fill:none;stroke:#000000;stroke-width:0.01603535;stroke-linecap:butt;stroke-linejoin:bevel;stroke-dasharray:none;stroke-dashoffset:0;stroke-opacity:1;stroke-miterlimit:4" />
      <path
         class="outer"
         d="m 170.94335,192.07999 5.72595,-0.29467 3.1399,4.84503 5.38205,2.08969 1.512,9.78928 -4.40922,4.20882 1.37801,5.68119 -7.69507,7.65262 -5.57262,-1.50971 5.65638,1.15699 4.43576,13.30337 -2.71526,7.66383 5.78385,8.03175 2.93264,30.93375 -4.70522,3.34578 -10.71673,-12.22341 -9.61891,-22.30388 3.44804,-4.6308 -7.18516,-21.6083 -5.37354,-25.16409 3.55595,16.65246 -0.57489,6.54221 -5.23349,2.43799 4.47574,3.64704 -1.82611,11.30632 -6.28046,7.52687 -12.27399,40.83987 -5.05866,-2.78266 -0.63832,-30.84087 4.81752,-8.86834 -3.57829,-7.30087 2.87698,-13.72511 5.48589,-1.79956 -5.34308,2.18745 -8.5826,-6.64197 0.66466,-5.80801 -4.89463,-3.67718 0.2881,-9.85503 5.08222,-2.73941 2.51646,-5.19622 5.71841,-0.41589 3.24184,4.77743 -4.47675,-21.32009 0.84821,-34.46106 5.06996,-2.78084 -7.13816,-8.77437 -8.98668,-39.253533 4.22967,-3.929779 0.11075,-6.781802 4.62431,-4.101872 5.4775,1.824915 6.57492,6.305918 3.38976,11.893645 v 0 l 2.018,47.546428 -2.53132,-59.631836 7.22681,-5.425274 5.19753,-2.513781 5.34291,3.62958 0.43547,6.340414 4.65833,3.410757 -4.12762,37.92764 -6.16764,10.45776 5.41218,2.01037 5.84571,34.48061 -1.5019,21.05419 z"
         id="path10"
         inkscape:connector-curvature="0"
         style="fill:none;stroke:#ff0000;stroke-width:0.01603535;stroke-linecap:butt;stroke-linejoin:bevel;stroke-dasharray:none;stroke-dashoffset:0;stroke-opacity:1;stroke-miterlimit:4" />
    </g>
    <g
       id="g22"
       style="stroke-width:0.01603535;stroke-miterlimit:4;stroke-dasharray:none">
      <path
         class="sticker"
         d="m 78.757335,67.743356 -5.213782,-2.479881 -2.588652,-32.440781 4.754536,-3.275335 z m -25.963667,60.672464 5.702968,-0.8997 3.446438,4.26128 -2.072312,5.38877 z m 24.629559,37.03439 -10.26208,-16.53641 -3.289062,-10.80138 3.854465,-4.50635 z m 20.84519,96.75519 6.168733,-0.4382 8.4515,10.03171 -1.96393,5.42922 z m 6.334113,19.66788 -5.68446,1.01008 -7.101066,-8.44001 1.081176,-6.48135 z m -32.034317,-64.164 -5.768862,-0.45232 -3.851082,-7.98764 3.250178,-4.77176 z m 1.042857,-15.44189 5.676441,1.0542 3.299959,9.32961 -3.153413,6.07886 z m 9.793207,49.40639 -5.486689,-1.7971 -1.886644,-8.98044 4.299678,-3.85307 z m 2.690182,-2.86154 5.641624,-1.22696 5.944468,6.5398 0.587866,8.08032 z m 6.803721,19.14976 -6.945193,-1.98645 -5.414791,-9.28989 2.866081,-5.01188 z m -13.464123,-49.23194 5.701303,2.50494 2.076924,9.08878 -3.56657,6.83682 z m 0.896565,18.31311 -5.715549,-0.81598 -5.406379,-13.46571 3.359519,-5.0522 z m 26.420718,51.01894 -3.71472,-0.71216 -0.9082,-2.6157 2.47411,-2.86097 z m 13.18707,-4.03045 -1.29924,5.62542 -7.6657,2.34291 -4.22213,-3.93788 z m -86.260749,-137.08714 -0.843005,-6.14619 11.80041,-11.43784 8.158602,-0.94467 z"
         id="path14"
         inkscape:connector-curvature="0"
         style="fill:#ffffff;fill-opacity:1;stroke:none;stroke-linecap:butt;stroke-linejoin:bevel;stroke-dasharray:none;stroke-width:0.01603535;stroke-miterlimit:4" />
      <path
         class="convex"
         d="m 66.198447,204.49756 7.412623,-2.23017 m 33.14027,85.79472 13.18707,-4.03045 M 33.677661,146.94452 41.157865,176.1277 m 63.444665,105.74558 6.32219,-4.64515 M 78.757335,67.743356 114.69776,12.160982 M 72.568213,217.70928 73.61107,202.26739 m 40.57087,-88.24553 -51.258307,9.40654 M 119.93842,65.602357 62.923633,123.4284 M 108.8625,154.82279 67.72655,133.60607"
         id="path16"
         inkscape:connector-curvature="0"
         style="fill:none;stroke:#000000;stroke-width:0.01603535;stroke-linecap:butt;stroke-linejoin:bevel;stroke-dasharray:none;stroke-dashoffset:0;stroke-opacity:1;stroke-miterlimit:4" />
      <path
         class="concave"
         d="m 100.9204,177.58841 -23.497173,-12.1382 m 6.222487,71.71039 -4.211657,-18.43054 M 114.18194,114.02186 67.72655,133.60607 M 41.157865,176.1277 77.423227,165.45021 m 6.222487,71.71039 18.166486,2.67747 m 7.0503,-85.01528 -31.439273,10.62742 m -3.812157,36.81718 3.812157,-36.81718 m -4.855014,52.25907 7.762409,19.33389 m 0,0 -0.896565,-18.31311 m 3.97022,32.94372 9.493903,16.28822 m 0,0 5.370237,-5.7566 m -5.370237,5.7566 11.70435,13.91128 M 41.157865,176.1277 59.870762,137.16617 m 12.697451,80.54311 6.865844,1.02078 m 0,0 -5.822987,-16.46267 m -7.412623,2.23017 11.22478,-39.04735 m 20.84519,96.75519 -12.173958,-13.39316 m -2.690182,2.86154 14.86414,10.53162 m -32.06997,-57.70784 6.369766,13.21172 m 7.762409,19.33389 5.763837,11.76907 M 75.709437,29.547359 78.757335,67.743356 M 86.094459,248.81224 83.645714,237.1606 m 8.744113,-16.76189 18.671663,2.10978 m -6.45896,59.36479 2.14881,6.18883 m -39.02479,-154.45604 9.696677,31.84414 m 29.328113,122.6119 4.17338,-10.83398 M 78.757335,67.743356 119.93842,65.602357 M 80.330622,237.04317 83.404277,251.67378 M 52.793668,128.41582 33.677661,146.94452 m 49.726616,104.72926 2.690182,-2.86154 M 110.92472,277.22813 98.268417,262.2054 M 33.677661,146.94452 59.870762,137.16617 m 0,0 -7.077094,-8.75035 m 27.536954,108.62735 3.315092,0.11743 m 18.166486,2.67747 -9.422373,-19.43936 m 0.508353,47.56329 18.02654,9.26613"
         id="path18"
         inkscape:connector-curvature="0"
         style="fill:none;stroke:#000000;stroke-width:0.01603535;stroke-linecap:butt;stroke-linejoin:bevel;stroke-dasharray:none;stroke-dashoffset:0;stroke-opacity:1;stroke-miterlimit:4" />
      <path
         class="outer"
         d="m 108.8625,154.82279 -7.9421,22.76562 -27.30933,24.67898 5.676441,1.0542 3.299959,9.32961 -3.153413,6.07886 5.701303,2.50494 2.076924,9.08878 -3.56657,6.83682 8.744113,-16.76189 13.288093,-11.32925 5.38357,13.43903 -9.24929,17.32958 -15.717741,8.97417 5.641624,-1.22696 5.944468,6.5398 0.587866,8.08032 6.168733,-0.4382 8.4515,10.03171 -1.96393,5.42922 9.01369,6.80353 -1.29924,5.62542 -7.6657,2.34291 -4.22213,-3.93788 -3.71472,-0.71216 -0.9082,-2.6157 2.47411,-2.86097 -5.68446,1.01008 -7.101066,-8.44001 1.081176,-6.48135 -6.945193,-1.98645 -5.414791,-9.28989 2.866081,-5.01188 -5.486689,-1.7971 -1.886644,-8.98044 4.299678,-3.85307 -5.715549,-0.81598 -5.406379,-13.46571 3.359519,-5.0522 -5.768862,-0.45232 -3.851082,-7.98764 3.250178,-4.77176 L 41.157865,176.1277 5,158.12829 l 28.677661,-11.18377 -0.843005,-6.14619 11.80041,-11.43784 8.158602,-0.94467 5.702968,-0.8997 3.446438,4.26128 -2.072312,5.38877 17.552465,28.28404 -10.26208,-16.53641 -3.289062,-10.80138 3.854465,-4.50635 -4.802917,-10.17767 15.833702,-55.685044 -5.213782,-2.479881 -2.588652,-32.440781 4.754536,-3.275335 38.988323,-17.386377 5.24066,53.441375 -5.75648,48.419503 z"
         id="path20"
         inkscape:connector-curvature="0"
         style="fill:none;stroke:#ff0000;stroke-width:0.01603535;stroke-linecap:butt;stroke-linejoin:bevel;stroke-dasharray:none;stroke-dashoffset:0;stroke-opacity:1;stroke-miterlimit:4" />
    </g>
  </g>
</svg>
