<?xml version="1.0" encoding="UTF-8" standalone="no"?>
<svg
   xmlns:dc="http://purl.org/dc/elements/1.1/"
   xmlns:cc="http://creativecommons.org/ns#"
   xmlns:rdf="http://www.w3.org/1999/02/22-rdf-syntax-ns#"
   xmlns:svg="http://www.w3.org/2000/svg"
   xmlns="http://www.w3.org/2000/svg"
   xmlns:sodipodi="http://sodipodi.sourceforge.net/DTD/sodipodi-0.dtd"
   xmlns:inkscape="http://www.inkscape.org/namespaces/inkscape"
   viewBox="0 0 2245.0393 3174.803"
   height="3174.803"
   width="2245.0393"
   xml:space="preserve"
   id="svg2"
   version="1.1"
   sodipodi:docname="unicorn_page05.svg"
   inkscape:version="0.92.2 5c3e80d, 2017-08-06"><sodipodi:namedview
     pagecolor="#ffffff"
     bordercolor="#666666"
     borderopacity="1"
     objecttolerance="10"
     gridtolerance="10"
     guidetolerance="10"
     inkscape:pageopacity="0"
     inkscape:pageshadow="2"
     inkscape:window-width="1440"
     inkscape:window-height="800"
     id="namedview108"
     showgrid="false"
     inkscape:zoom="0.42050408"
     inkscape:cx="779.23821"
     inkscape:cy="2561.7259"
     inkscape:window-x="0"
     inkscape:window-y="1"
     inkscape:window-maximized="1"
     inkscape:current-layer="svg2" /><metadata
     id="metadata8"><rdf:RDF><cc:Work
         rdf:about=""><dc:format>image/svg+xml</dc:format><dc:type
           rdf:resource="http://purl.org/dc/dcmitype/StillImage" /><dc:title /></cc:Work></rdf:RDF></metadata><defs
     id="defs6" /><g
     transform="matrix(3.7795279,0,0,-3.7795279,0,3174.8031)"
     id="g10"
     style="fill:none;stroke-width:0.03527777;stroke-miterlimit:4;stroke-dasharray:none"><g
       transform="translate(111.50337,384.56055)"
       id="g12"
       style="fill:none;stroke-width:0.03527777;stroke-miterlimit:4;stroke-dasharray:none"><path
         id="path14"
         style="fill:none;fill-opacity:1;fill-rule:nonzero;stroke:none;stroke-width:0.03527777;stroke-miterlimit:4;stroke-dasharray:none"
         d="m 99.459801,124.08396 5.427909,-1.96752 16.02626,-90.195564 -4.04959,-5.789635" /><path
         id="path16"
         style="fill:none;fill-opacity:1;fill-rule:nonzero;stroke:none;stroke-width:0.03527777;stroke-miterlimit:4;stroke-dasharray:none"
         d="m 101.32091,197.32486 4.79136,-3.96018 -3.37545,-61.86778 -5.149845,-2.61006" /><path
         id="path18"
         style="fill:none;fill-opacity:1;fill-rule:nonzero;stroke:none;stroke-width:0.03527777;stroke-miterlimit:4;stroke-dasharray:none"
         d="M 116.86438,26.131241 116.67956,20.360697 78.957291,0.163397 73.924568,3.14036" /><path
         id="path20"
         style="fill:none;fill-opacity:1;fill-rule:nonzero;stroke:none;stroke-width:0.03527777;stroke-miterlimit:4;stroke-dasharray:none"
         d="M 97.586975,128.88684 97.074631,123.31514 58.609344,110.9211" /><path
         id="path22"
         style="fill:none;fill-opacity:1;fill-rule:nonzero;stroke:none;stroke-width:0.03527777;stroke-miterlimit:4;stroke-dasharray:none"
         d="M 73.924568,3.14036 69.079834,0 52.522018,8.454357 l -0.29726,5.765844" /><path
         id="path24"
         style="fill:none;fill-opacity:1;fill-rule:nonzero;stroke:none;stroke-width:0.03527777;stroke-miterlimit:4;stroke-dasharray:none"
         d="M 4.167291,126.10726 0,130.91644 l 18.465134,96.08576 5.472511,1.98271" /><path
         id="path26"
         style="fill:none;fill-opacity:1;fill-rule:nonzero;stroke:none;stroke-width:0.03527777;stroke-miterlimit:4;stroke-dasharray:none"
         d="m 52.224758,14.220201 -6.244488,4.556475 -23.144308,95.811194 4.182379,3.98008" /><path
         id="path28"
         style="fill:none;fill-opacity:1;fill-rule:nonzero;stroke:none;stroke-width:0.03527777;stroke-miterlimit:4;stroke-dasharray:none"
         d="m 23.937645,228.98491 -4.707333,7.18161 5.379139,130.09703 5.137459,3.2211" /><path
         id="path30"
         style="fill:none;fill-opacity:1;fill-rule:nonzero;stroke:none;stroke-width:0.03527777;stroke-miterlimit:4;stroke-dasharray:none"
         d="M 49.971504,226.53606 45.173538,203.96698 12.124796,131.5054 4.167291,126.10726" /><path
         id="path32"
         style="fill:none;fill-opacity:1;fill-rule:nonzero;stroke:none;stroke-width:0.03527777;stroke-miterlimit:4;stroke-dasharray:none"
         d="m 29.74691,369.48465 5.046211,2.80517 81.630679,-48.91348 -0.0937,-5.77276" /><path
         id="path34"
         style="fill:none;fill-opacity:1;fill-rule:nonzero;stroke:none;stroke-width:0.03527777;stroke-miterlimit:4;stroke-dasharray:none"
         d="m 116.33006,317.60358 4.58388,-3.64539 -14.27406,-114.38794 -5.31897,-2.24539" /><path
         id="path36"
         style="fill:none;stroke:#000000;stroke-width:0.03527777;stroke-linecap:butt;stroke-linejoin:miter;stroke-miterlimit:4;stroke-dasharray:none;stroke-opacity:1"
         d="M 23.937645,228.98491 4.167291,126.10726" /><path
         id="path38"
         style="fill:none;stroke:#000000;stroke-width:0.03527777;stroke-linecap:butt;stroke-linejoin:miter;stroke-miterlimit:4;stroke-dasharray:none;stroke-opacity:1"
         d="M 29.74691,369.48465 23.937645,228.98491" /><path
         id="path40"
         style="fill:none;stroke:#000000;stroke-width:0.03527777;stroke-linecap:butt;stroke-linejoin:miter;stroke-miterlimit:4;stroke-dasharray:none;stroke-opacity:1"
         d="M 58.609344,110.9211 116.86438,26.131241" /><path
         id="path42"
         style="fill:none;stroke:#000000;stroke-width:0.03527777;stroke-linecap:butt;stroke-linejoin:miter;stroke-miterlimit:4;stroke-dasharray:none;stroke-opacity:1"
         d="m 52.224758,14.220201 64.639622,11.91104" /><path
         id="path44"
         style="fill:none;stroke:#000000;stroke-width:0.03527777;stroke-linecap:butt;stroke-linejoin:miter;stroke-miterlimit:4;stroke-dasharray:none;stroke-opacity:1"
         d="M 27.018341,118.56795 52.224758,14.220201" /><path
         id="path46"
         style="fill:none;stroke:#000000;stroke-width:0.03527777;stroke-linecap:butt;stroke-linejoin:miter;stroke-miterlimit:4;stroke-dasharray:none;stroke-opacity:1"
         d="M 73.924568,3.14036 116.86438,26.131241" /><path
         id="path48"
         style="fill:none;stroke:#000000;stroke-width:0.03527777;stroke-linecap:butt;stroke-linejoin:miter;stroke-miterlimit:4;stroke-dasharray:none;stroke-opacity:1"
         d="M 116.33006,317.60358 29.74691,369.48465" /><path
         id="path50"
         style="fill:none;stroke:#000000;stroke-width:0.03527777;stroke-linecap:butt;stroke-linejoin:miter;stroke-miterlimit:4;stroke-dasharray:none;stroke-opacity:1"
         d="m 27.018341,118.56795 74.302569,78.75691" /><path
         id="path52"
         style="fill:none;stroke:#000000;stroke-width:0.03527777;stroke-linecap:butt;stroke-linejoin:miter;stroke-miterlimit:4;stroke-dasharray:none;stroke-opacity:1"
         d="m 58.609344,110.9211 38.977631,17.96574" /><path
         id="path54"
         style="fill:none;stroke:#000000;stroke-width:0.03527777;stroke-linecap:butt;stroke-linejoin:miter;stroke-miterlimit:4;stroke-dasharray:none;stroke-opacity:1"
         d="m 97.586975,128.88684 3.733935,68.43802" /><path
         id="path56"
         style="fill:none;stroke:#000000;stroke-width:0.03527777;stroke-linecap:butt;stroke-linejoin:miter;stroke-miterlimit:4;stroke-dasharray:none;stroke-opacity:1"
         d="M 27.018341,118.56795 58.609344,110.9211" /><path
         id="path58"
         style="fill:none;stroke:#000000;stroke-width:0.03527777;stroke-linecap:butt;stroke-linejoin:miter;stroke-miterlimit:4;stroke-dasharray:none;stroke-opacity:1"
         d="m 4.167291,126.10726 45.804213,100.4288" /><path
         id="path60"
         style="fill:none;stroke:#000000;stroke-width:0.03527777;stroke-linecap:butt;stroke-linejoin:miter;stroke-miterlimit:4;stroke-dasharray:none;stroke-opacity:1"
         d="m 23.937645,228.98491 26.033859,-2.44885" /><path
         id="path62"
         style="fill:none;stroke:#000000;stroke-width:0.03527777;stroke-linecap:butt;stroke-linejoin:miter;stroke-miterlimit:4;stroke-dasharray:none;stroke-opacity:1"
         d="m 58.609344,110.9211 42.711566,86.40376" /><path
         id="path64"
         style="fill:none;stroke:#000000;stroke-width:0.03527777;stroke-linecap:butt;stroke-linejoin:miter;stroke-miterlimit:4;stroke-dasharray:none;stroke-opacity:1"
         d="M 116.86438,26.131241 99.459801,124.08396" /><path
         id="path66"
         style="fill:none;stroke:#000000;stroke-width:0.03527777;stroke-linecap:butt;stroke-linejoin:miter;stroke-miterlimit:4;stroke-dasharray:none;stroke-opacity:1"
         d="m 49.971504,226.53606 51.349406,-29.2112" /><path
         id="path68"
         style="fill:none;stroke:#000000;stroke-width:0.03527777;stroke-linecap:butt;stroke-linejoin:miter;stroke-miterlimit:4;stroke-dasharray:none;stroke-opacity:1"
         d="m 101.32091,197.32486 15.00915,120.27872" /><path
         id="path70"
         style="fill:none;stroke:#000000;stroke-width:0.03527777;stroke-linecap:butt;stroke-linejoin:miter;stroke-miterlimit:4;stroke-dasharray:none;stroke-opacity:1"
         d="M 52.224758,14.220201 73.924568,3.14036" /><path
         id="path72"
         style="fill:none;stroke:#000000;stroke-width:0.03527777;stroke-linecap:butt;stroke-linejoin:miter;stroke-miterlimit:4;stroke-dasharray:none;stroke-opacity:1"
         d="M 52.224758,14.220201 58.609344,110.9211" /><path
         id="path74"
         style="fill:none;stroke:#000000;stroke-width:0.03527777;stroke-linecap:butt;stroke-linejoin:miter;stroke-miterlimit:4;stroke-dasharray:none;stroke-opacity:1"
         d="M 29.74691,369.48465 49.971504,226.53606" /><path
         id="path76"
         style="fill:none;stroke:#000000;stroke-width:0.03527777;stroke-linecap:butt;stroke-linejoin:miter;stroke-miterlimit:4;stroke-dasharray:none;stroke-opacity:1"
         d="m 49.971504,226.53606 66.358556,91.06752" /><path
         id="path78"
         style="fill:none;stroke:#ff0000;stroke-width:0.03527777;stroke-linecap:butt;stroke-linejoin:miter;stroke-miterlimit:4;stroke-dasharray:none;stroke-opacity:1"
         d="m 99.459801,124.08396 5.427909,-1.96752 16.02626,-90.195564 -4.04959,-5.789635 -0.18482,-5.770544 L 78.957291,0.163397 73.924568,3.14036 69.079834,0 52.522018,8.454357 52.224758,14.220201 45.98027,18.776676 22.835962,114.58787 27.018341,118.56795 49.971504,226.53606 45.173538,203.96698 12.124796,131.5054 4.167291,126.10726 0,130.91644 l 18.465134,96.08576 5.472511,1.98271 -4.707333,7.18161 5.379139,130.09703 5.137459,3.2211 5.046211,2.80517 81.630679,-48.91348 -0.0937,-5.77276 4.58388,-3.64539 -14.27406,-114.38794 -5.31897,-2.24539 4.79136,-3.96018 -3.37545,-61.86778 -5.149845,-2.61006 -0.512344,-5.5717 -38.465287,-12.39404 40.850457,13.16286 z" /></g><g
       transform="translate(111.50337,5)"
       id="g80"
       style="fill:none;stroke-width:0.03527777;stroke-miterlimit:4;stroke-dasharray:none"><path
         id="path82"
         style="fill:none;fill-opacity:1;fill-rule:nonzero;stroke:none;stroke-width:0.03527777;stroke-miterlimit:4;stroke-dasharray:none"
         d="m 111.31812,179.22082 5.46267,-1.86881 22.22155,-113.118398 -4.34331,-3.829269" /><path
         id="path84"
         style="fill:none;fill-opacity:1;fill-rule:nonzero;stroke:none;stroke-width:0.03527777;stroke-miterlimit:4;stroke-dasharray:none"
         d="m 135.06183,357.02048 3.94053,-6.35147 -17.63387,-98.3098 -5.43111,-1.95867" /><path
         id="path86"
         style="fill:none;fill-opacity:1;fill-rule:nonzero;stroke:none;stroke-width:0.03527777;stroke-miterlimit:4;stroke-dasharray:none"
         d="m 115.80225,250.03493 4.80756,-3.19699 -4.05563,-64.04725 -5.23606,-3.56987" /><path
         id="path88"
         style="fill:none;fill-opacity:1;fill-rule:nonzero;stroke:none;stroke-width:0.03527777;stroke-miterlimit:4;stroke-dasharray:none"
         d="m 97.132202,376.42392 4.847138,3.13663 32.78966,-16.77399 0.29283,-5.76608" /><path
         id="path90"
         style="fill:none;fill-opacity:1;fill-rule:nonzero;stroke:none;stroke-width:0.03527777;stroke-miterlimit:4;stroke-dasharray:none"
         d="m 75.79026,265.02734 39.93881,-14.55319 0.0732,-0.43922" /><path
         id="path92"
         style="fill:none;fill-opacity:1;fill-rule:nonzero;stroke:none;stroke-width:0.03527777;stroke-miterlimit:4;stroke-dasharray:none"
         d="m 67.698105,360.9921 0.890884,6.11261 23.664856,12.40707 4.878357,-3.08786" /><path
         id="path94"
         style="fill:none;fill-opacity:1;fill-rule:nonzero;stroke:none;stroke-width:0.03527777;stroke-miterlimit:4;stroke-dasharray:none"
         d="M 21.762035,148.69798 16.309761,150.59694 0,236.11649 l 4.205233,4.63984" /><path
         id="path96"
         style="fill:none;fill-opacity:1;fill-rule:nonzero;stroke:none;stroke-width:0.03527777;stroke-miterlimit:4;stroke-dasharray:none"
         d="m 40.019794,254.43631 -4.113639,4.05109 25.626052,98.65503 6.165898,3.84967" /><path
         id="path98"
         style="fill:none;fill-opacity:1;fill-rule:nonzero;stroke:none;stroke-width:0.03527777;stroke-miterlimit:4;stroke-dasharray:none"
         d="m 46.735359,2.591789 -5.620815,3.207845 -22.957169,134.310686 3.60466,8.58766" /><path
         id="path100"
         style="fill:none;fill-opacity:1;fill-rule:nonzero;stroke:none;stroke-width:0.03527777;stroke-miterlimit:4;stroke-dasharray:none"
         d="m 4.205233,240.75633 8.287921,-4.03598 44.695883,-73.83497 2.623486,-13.98905" /><path
         id="path102"
         style="fill:none;fill-opacity:1;fill-rule:nonzero;stroke:none;stroke-width:0.03527777;stroke-miterlimit:4;stroke-dasharray:none"
         d="M 134.65903,60.404343 134.99399,54.640564 51.894424,0 46.735359,2.591789" /><path
         id="path104"
         style="fill:none;stroke:#000000;stroke-width:0.03527777;stroke-linecap:butt;stroke-linejoin:miter;stroke-miterlimit:4;stroke-dasharray:none;stroke-opacity:1"
         d="M 135.06183,357.02048 97.132202,376.42392" /><path
         id="path106"
         style="fill:none;stroke:#000000;stroke-width:0.03527777;stroke-linecap:butt;stroke-linejoin:miter;stroke-miterlimit:4;stroke-dasharray:none;stroke-opacity:1"
         d="M 46.735359,2.591789 134.65903,60.404343" /><path
         id="path108"
         style="fill:none;stroke:#000000;stroke-width:0.03527777;stroke-linecap:butt;stroke-linejoin:miter;stroke-miterlimit:4;stroke-dasharray:none;stroke-opacity:1"
         d="M 21.762035,148.69798 46.735359,2.591789" /><path
         id="path110"
         style="fill:none;stroke:#000000;stroke-width:0.03527777;stroke-linecap:butt;stroke-linejoin:miter;stroke-miterlimit:4;stroke-dasharray:none;stroke-opacity:1"
         d="m 75.79026,265.02734 59.27157,91.99314" /><path
         id="path112"
         style="fill:none;stroke:#000000;stroke-width:0.03527777;stroke-linecap:butt;stroke-linejoin:miter;stroke-miterlimit:4;stroke-dasharray:none;stroke-opacity:1"
         d="M 67.698105,360.9921 40.019794,254.43631" /><path
         id="path114"
         style="fill:none;stroke:#000000;stroke-width:0.03527777;stroke-linecap:butt;stroke-linejoin:miter;stroke-miterlimit:4;stroke-dasharray:none;stroke-opacity:1"
         d="M 4.205233,240.75633 21.762035,148.69798" /><path
         id="path116"
         style="fill:none;stroke:#000000;stroke-width:0.03527777;stroke-linecap:butt;stroke-linejoin:miter;stroke-miterlimit:4;stroke-dasharray:none;stroke-opacity:1"
         d="m 75.79026,265.02734 35.52786,-85.80652" /><path
         id="path118"
         style="fill:none;stroke:#000000;stroke-width:0.03527777;stroke-linecap:butt;stroke-linejoin:miter;stroke-miterlimit:4;stroke-dasharray:none;stroke-opacity:1"
         d="m 67.698105,360.9921 67.363725,-3.97162" /><path
         id="path120"
         style="fill:none;stroke:#000000;stroke-width:0.03527777;stroke-linecap:butt;stroke-linejoin:miter;stroke-miterlimit:4;stroke-dasharray:none;stroke-opacity:1"
         d="M 40.019794,254.43631 111.31812,179.22082" /><path
         id="path122"
         style="fill:none;stroke:#000000;stroke-width:0.03527777;stroke-linecap:butt;stroke-linejoin:miter;stroke-miterlimit:4;stroke-dasharray:none;stroke-opacity:1"
         d="m 115.93738,250.40054 19.12445,106.61994" /><path
         id="path124"
         style="fill:none;stroke:#000000;stroke-width:0.03527777;stroke-linecap:butt;stroke-linejoin:miter;stroke-miterlimit:4;stroke-dasharray:none;stroke-opacity:1"
         d="M 97.132202,376.42392 67.698105,360.9921" /><path
         id="path126"
         style="fill:none;stroke:#000000;stroke-width:0.03527777;stroke-linecap:butt;stroke-linejoin:miter;stroke-miterlimit:4;stroke-dasharray:none;stroke-opacity:1"
         d="m 59.812523,148.89633 51.505597,30.32449" /><path
         id="path128"
         style="fill:none;stroke:#000000;stroke-width:0.03527777;stroke-linecap:butt;stroke-linejoin:miter;stroke-miterlimit:4;stroke-dasharray:none;stroke-opacity:1"
         d="M 59.812523,148.89633 134.65903,60.404343" /><path
         id="path130"
         style="fill:none;stroke:#000000;stroke-width:0.03527777;stroke-linecap:butt;stroke-linejoin:miter;stroke-miterlimit:4;stroke-dasharray:none;stroke-opacity:1"
         d="M 46.735359,2.591789 59.812523,148.89633" /><path
         id="path132"
         style="fill:none;stroke:#000000;stroke-width:0.03527777;stroke-linecap:butt;stroke-linejoin:miter;stroke-miterlimit:4;stroke-dasharray:none;stroke-opacity:1"
         d="m 59.812523,148.89633 -55.60729,91.86" /><path
         id="path134"
         style="fill:none;stroke:#000000;stroke-width:0.03527777;stroke-linecap:butt;stroke-linejoin:miter;stroke-miterlimit:4;stroke-dasharray:none;stroke-opacity:1"
         d="m 111.31812,179.22082 4.48413,70.81411" /><path
         id="path136"
         style="fill:none;stroke:#000000;stroke-width:0.03527777;stroke-linecap:butt;stroke-linejoin:miter;stroke-miterlimit:4;stroke-dasharray:none;stroke-opacity:1"
         d="M 134.65903,60.404343 111.31812,179.22082" /><path
         id="path138"
         style="fill:none;stroke:#000000;stroke-width:0.03527777;stroke-linecap:butt;stroke-linejoin:miter;stroke-miterlimit:4;stroke-dasharray:none;stroke-opacity:1"
         d="M 115.80225,250.03493 75.79026,265.02734" /><path
         id="path140"
         style="fill:none;stroke:#000000;stroke-width:0.03527777;stroke-linecap:butt;stroke-linejoin:miter;stroke-miterlimit:4;stroke-dasharray:none;stroke-opacity:1"
         d="M 40.019794,254.43631 75.79026,265.02734" /><path
         id="path142"
         style="fill:none;stroke:#000000;stroke-width:0.03527777;stroke-linecap:butt;stroke-linejoin:miter;stroke-miterlimit:4;stroke-dasharray:none;stroke-opacity:1"
         d="M 67.698105,360.9921 75.79026,265.02734" /><path
         id="path144"
         style="fill:none;stroke:#000000;stroke-width:0.03527777;stroke-linecap:butt;stroke-linejoin:miter;stroke-miterlimit:4;stroke-dasharray:none;stroke-opacity:1"
         d="m 21.762035,148.69798 38.050488,0.19835" /><path
         id="path146"
         style="fill:none;stroke:#ff0000;stroke-width:0.03527777;stroke-linecap:butt;stroke-linejoin:miter;stroke-miterlimit:4;stroke-dasharray:none;stroke-opacity:1"
         d="m 12.493154,236.72035 44.695883,-73.83497 2.623486,-13.98905 -19.792729,105.53998 -4.113639,4.05109 25.626052,98.65503 6.165898,3.84967 0.890884,6.11261 23.664856,12.40707 4.878357,-3.08786 4.847138,3.13663 32.78966,-16.77399 0.29283,-5.76608 3.94053,-6.35147 -17.63387,-98.3098 -5.43111,-1.95867 -40.14712,14.6268 39.93881,-14.55319 0.0732,-0.43922 4.80756,-3.19699 -4.05563,-64.04725 -5.23606,-3.56987 5.46267,-1.86881 22.22155,-113.118398 -4.34331,-3.829269 0.33496,-5.763779 L 51.894424,0 46.735359,2.591789 41.114544,5.799634 18.157375,140.11032 l 3.60466,8.58766 -5.452274,1.89896 L 0,236.11649 l 4.205233,4.63984 z" /></g><g
       transform="translate(5,5)"
       id="g148"
       style="fill:none;stroke-width:0.03527777;stroke-miterlimit:4;stroke-dasharray:none"><path
         id="path150"
         style="fill:none;fill-opacity:1;fill-rule:nonzero;stroke:none;stroke-width:0.03527777;stroke-miterlimit:4;stroke-dasharray:none"
         d="m 77.504593,114.3626 5.597206,-1.41584 23.401571,-82.674057 -2.74415,-8.663601" /><path
         id="path152"
         style="fill:none;fill-opacity:1;fill-rule:nonzero;stroke:none;stroke-width:0.03527777;stroke-miterlimit:4;stroke-dasharray:none"
         d="m 65.624428,190.88373 5.383682,-2.08551 10.359749,-66.72798 -3.863266,-7.70764" /><path
         id="path154"
         style="fill:none;fill-opacity:1;fill-rule:nonzero;stroke:none;stroke-width:0.03527777;stroke-miterlimit:4;stroke-dasharray:none"
         d="m 7.097486,0 -4.74672,3.786594 6.528399,93.087368 5.189706,2.529885" /><path
         id="path156"
         style="fill:none;fill-opacity:1;fill-rule:nonzero;stroke:none;stroke-width:0.03527777;stroke-miterlimit:4;stroke-dasharray:none"
         d="m 95.442406,273.41659 3.702957,-4.55392 -11.635178,-33.22488 -5.673126,-1.07195" /><path
         id="path158"
         style="fill:none;stroke:#000000;stroke-width:0.03527777;stroke-linecap:butt;stroke-linejoin:miter;stroke-miterlimit:4;stroke-dasharray:none;stroke-opacity:1"
         d="M 65.624428,190.88373 0,196.60559" /><path
         id="path160"
         style="fill:none;stroke:#000000;stroke-width:0.03527777;stroke-linecap:butt;stroke-linejoin:miter;stroke-miterlimit:4;stroke-dasharray:none;stroke-opacity:1"
         d="M 95.442406,273.41659 37.872444,299.14838" /><path
         id="path162"
         style="fill:none;stroke:#000000;stroke-width:0.03527777;stroke-linecap:butt;stroke-linejoin:miter;stroke-miterlimit:4;stroke-dasharray:none;stroke-opacity:1"
         d="M 77.504593,114.3626 14.068871,99.403847" /><path
         id="path164"
         style="fill:none;stroke:#000000;stroke-width:0.03527777;stroke-linecap:butt;stroke-linejoin:miter;stroke-miterlimit:4;stroke-dasharray:none;stroke-opacity:1"
         d="m 81.837059,234.56584 13.605347,38.85075" /><path
         id="path166"
         style="fill:none;stroke:#000000;stroke-width:0.03527777;stroke-linecap:butt;stroke-linejoin:miter;stroke-miterlimit:4;stroke-dasharray:none;stroke-opacity:1"
         d="M 77.504593,114.3626 0,196.60559" /><path
         id="path168"
         style="fill:none;stroke:#000000;stroke-width:0.03527777;stroke-linecap:butt;stroke-linejoin:miter;stroke-miterlimit:4;stroke-dasharray:none;stroke-opacity:1"
         d="M 81.837059,234.56584 21.459915,252.12082" /><path
         id="path170"
         style="fill:none;stroke:#000000;stroke-width:0.03527777;stroke-linecap:butt;stroke-linejoin:miter;stroke-miterlimit:4;stroke-dasharray:none;stroke-opacity:1"
         d="M 106.50334,398.00089 55.374783,393.42215" /><path
         id="path172"
         style="fill:none;stroke:#000000;stroke-width:0.03527777;stroke-linecap:butt;stroke-linejoin:miter;stroke-miterlimit:4;stroke-dasharray:none;stroke-opacity:1"
         d="M 103.75922,21.609102 77.504593,114.3626" /><path
         id="path174"
         style="fill:none;stroke:#000000;stroke-width:0.03527777;stroke-linecap:butt;stroke-linejoin:miter;stroke-miterlimit:4;stroke-dasharray:none;stroke-opacity:1"
         d="M 106.50334,398.00089 37.872444,299.14838" /><path
         id="path176"
         style="fill:none;stroke:#000000;stroke-width:0.03527777;stroke-linecap:butt;stroke-linejoin:miter;stroke-miterlimit:4;stroke-dasharray:none;stroke-opacity:1"
         d="M 14.068871,99.403847 7.097486,0" /><path
         id="path178"
         style="fill:none;stroke:#000000;stroke-width:0.03527777;stroke-linecap:butt;stroke-linejoin:miter;stroke-miterlimit:4;stroke-dasharray:none;stroke-opacity:1"
         d="M 65.624428,190.88373 21.459915,252.12082" /><path
         id="path180"
         style="fill:none;stroke:#000000;stroke-width:0.03527777;stroke-linecap:butt;stroke-linejoin:miter;stroke-miterlimit:4;stroke-dasharray:none;stroke-opacity:1"
         d="M 103.75922,21.609102 14.068871,99.403847" /><path
         id="path182"
         style="fill:none;stroke:#000000;stroke-width:0.03527777;stroke-linecap:butt;stroke-linejoin:miter;stroke-miterlimit:4;stroke-dasharray:none;stroke-opacity:1"
         d="M 77.504593,114.3626 65.624428,190.88373" /><path
         id="path184"
         style="fill:none;stroke:#ff0000;stroke-width:0.03527777;stroke-linecap:butt;stroke-linejoin:miter;stroke-miterlimit:4;stroke-dasharray:none;stroke-opacity:1"
         d="M 99.145363,268.86267 87.510185,235.63779 81.837059,234.56584 65.624428,190.88373 71.00811,188.79822 81.367859,122.07024 77.504593,114.3626 83.101799,112.94676 106.50337,30.272703 103.75922,21.609102 7.097486,0 2.350766,3.786594 8.879165,96.873962 14.068871,99.403847 0,196.60559 l 21.459915,55.51523 16.412529,47.02756 17.502339,94.27377 -5.807103,60.3338 47.797799,12.26605 9.137861,-68.02111 -11.060934,-124.5843 z" /></g><g
       transform="translate(250.50575,5)"
       id="g186"
       style="fill:none;stroke-width:0.03527777;stroke-miterlimit:4;stroke-dasharray:none"><path
         id="path188"
         style="fill:none;fill-opacity:1;fill-rule:nonzero;stroke:none;stroke-width:0.03527777;stroke-miterlimit:4;stroke-dasharray:none"
         d="M 86.710945,71.762863 87.600311,66.058273 5.620259,0 0,1.892513" /><path
         id="path190"
         style="fill:none;fill-opacity:1;fill-rule:nonzero;stroke:none;stroke-width:0.03527777;stroke-miterlimit:4;stroke-dasharray:none"
         d="m 170.02193,87.271049 -5.58318,1.470253 -21.86909,80.232298 3.63044,5.69377" /><path
         id="path192"
         style="fill:none;fill-opacity:1;fill-rule:nonzero;stroke:none;stroke-width:0.03527777;stroke-miterlimit:4;stroke-dasharray:none"
         d="m 146.2001,174.66737 2.05718,-6.43174 -55.054475,-95.233395 -6.49186,-1.239372" /><path
         id="path194"
         style="fill:none;stroke:#000000;stroke-width:0.03527777;stroke-linecap:butt;stroke-linejoin:miter;stroke-miterlimit:4;stroke-dasharray:none;stroke-opacity:1"
         d="M 217.72525,87.733467 170.02193,87.271049" /><path
         id="path196"
         style="fill:none;stroke:#000000;stroke-width:0.03527777;stroke-linecap:butt;stroke-linejoin:miter;stroke-miterlimit:4;stroke-dasharray:none;stroke-opacity:1"
         d="M 77.406296,197.9276 146.2001,174.66737" /><path
         id="path198"
         style="fill:none;stroke:#000000;stroke-width:0.03527777;stroke-linecap:butt;stroke-linejoin:miter;stroke-miterlimit:4;stroke-dasharray:none;stroke-opacity:1"
         d="m 0,1.892513 86.710945,69.87035" /><path
         id="path200"
         style="fill:none;stroke:#000000;stroke-width:0.03527777;stroke-linecap:butt;stroke-linejoin:miter;stroke-miterlimit:4;stroke-dasharray:none;stroke-opacity:1"
         d="M 217.72522,312.12839 146.2001,174.66737" /><path
         id="path202"
         style="fill:none;stroke:#000000;stroke-width:0.03527777;stroke-linecap:butt;stroke-linejoin:miter;stroke-miterlimit:4;stroke-dasharray:none;stroke-opacity:1"
         d="M 146.2001,174.66737 170.02193,87.271049" /><path
         id="path204"
         style="fill:none;stroke:#000000;stroke-width:0.03527777;stroke-linecap:butt;stroke-linejoin:miter;stroke-miterlimit:4;stroke-dasharray:none;stroke-opacity:1"
         d="m 146.2001,174.66737 67.29436,14.71039" /><path
         id="path206"
         style="fill:none;stroke:#000000;stroke-width:0.03527777;stroke-linecap:butt;stroke-linejoin:miter;stroke-miterlimit:4;stroke-dasharray:none;stroke-opacity:1"
         d="M 86.710945,71.762863 10.998899,75.393852" /><path
         id="path208"
         style="fill:none;stroke:#000000;stroke-width:0.03527777;stroke-linecap:butt;stroke-linejoin:miter;stroke-miterlimit:4;stroke-dasharray:none;stroke-opacity:1"
         d="M 170.02193,87.271049 213.49446,189.37776" /><path
         id="path210"
         style="fill:none;stroke:#000000;stroke-width:0.03527777;stroke-linecap:butt;stroke-linejoin:miter;stroke-miterlimit:4;stroke-dasharray:none;stroke-opacity:1"
         d="M 86.710945,71.762863 146.2001,174.66737" /><path
         id="path212"
         style="fill:none;stroke:#000000;stroke-width:0.03527777;stroke-linecap:butt;stroke-linejoin:miter;stroke-miterlimit:4;stroke-dasharray:none;stroke-opacity:1"
         d="M 170.25757,305.66626 146.2001,174.66737" /><path
         id="path214"
         style="fill:none;stroke:#ff0000;stroke-width:0.03527777;stroke-linecap:butt;stroke-linejoin:miter;stroke-miterlimit:4;stroke-dasharray:none;stroke-opacity:1"
         d="M 87.600311,66.058273 5.620259,0 0,1.892513 10.998899,75.393852 77.406296,197.9276 l 92.851274,107.73866 47.46765,6.46213 -4.23076,-122.75063 4.23079,-101.644293 -0.71639,-63.15329 -46.98693,62.690872 -5.58318,1.470253 -19.1996,72.223828 0.96095,13.70224 -0.96095,-13.70224 -52.036345,-87.962895 -6.49186,-1.239372 z" /></g></g></svg>