<?xml version="1.0" encoding="UTF-8" standalone="no"?>
<svg
   xmlns:dc="http://purl.org/dc/elements/1.1/"
   xmlns:cc="http://creativecommons.org/ns#"
   xmlns:rdf="http://www.w3.org/1999/02/22-rdf-syntax-ns#"
   xmlns:svg="http://www.w3.org/2000/svg"
   xmlns="http://www.w3.org/2000/svg"
   xmlns:sodipodi="http://sodipodi.sourceforge.net/DTD/sodipodi-0.dtd"
   xmlns:inkscape="http://www.inkscape.org/namespaces/inkscape"
   version="1.1"
   width="45cm"
   height="70cm"
   viewBox="0 0 450 699.99998"
   id="svg44"
   sodipodi:docname="unicorn_new_page2.svg"
   inkscape:version="0.92.2 5c3e80d, 2017-08-06">
  <metadata
     id="metadata50">
    <rdf:RDF>
      <cc:Work
         rdf:about="">
        <dc:format>image/svg+xml</dc:format>
        <dc:type
           rdf:resource="http://purl.org/dc/dcmitype/StillImage" />
        <dc:title></dc:title>
      </cc:Work>
    </rdf:RDF>
  </metadata>
  <defs
     id="defs48" />
  <sodipodi:namedview
     pagecolor="#ffffff"
     bordercolor="#666666"
     borderopacity="1"
     objecttolerance="10"
     gridtolerance="10"
     guidetolerance="10"
     inkscape:pageopacity="0"
     inkscape:pageshadow="2"
     inkscape:window-width="1440"
     inkscape:window-height="805"
     id="namedview46"
     showgrid="false"
     units="cm"
     inkscape:document-units="cm"
     inkscape:zoom="0.84096521"
     inkscape:cx="293.36044"
     inkscape:cy="430.97095"
     inkscape:window-x="0"
     inkscape:window-y="1"
     inkscape:window-maximized="1"
     inkscape:current-layer="svg44" />
  <style
     type="text/css"
     id="style2">
    path {
        fill: none;
        stroke-linecap: butt;
        stroke-linejoin: bevel;
        stroke-dasharray: none;
    }
    path.outer {
        stroke: #ff0000;
        stroke-dasharray: none;
        stroke-dashoffset: 0;
        stroke-width: 0.3;
        stroke-opacity: 1.0;
    }
    path.convex {
        stroke: #000000;
        stroke-dasharray: 0.50,1.00;
        stroke-dashoffset:0;
        stroke-width:0.2;
        stroke-opacity: 1.0
    }
    path.concave {
        stroke: #000000;
        stroke-dasharray: none;
        stroke-dashoffset: 0;
        stroke-width: 0.2;
        stroke-opacity: 1.0
    }
    path.freestyle {
        stroke: #000000;
        stroke-dasharray: none;
        stroke-dashoffset: 0;
        stroke-width: 0.2;
        stroke-opacity: 1.0
    }
    path.outer_background {
        stroke: #ffffff;
        stroke-opacity: 1.0;
        stroke-width: 0.5
    }
    path.inner_background {
        stroke: #ffffff;
        stroke-opacity: 1.0;
        stroke-width: 0.2
    }
    path.sticker {
        fill: #ffffff;
        stroke: none;
        fill-opacity: 1.0;
    }
    path.arrow {
        fill: #000;
    }
    text {
        font-style: normal;
        fill: #000000;
        fill-opacity: 1.0;
        stroke: none;
    }
    text, tspan {
        text-anchor:middle;
    }
    </style>
  <g
     id="g12"
     transform="matrix(2.2,0,0,2.2,-32.208764,8.6876282)"
     style="stroke-width:0.01603535;stroke-miterlimit:4;stroke-dasharray:none">
    <path
       style="fill:#ffffff;fill-opacity:1;stroke:none;stroke-linecap:butt;stroke-linejoin:bevel;stroke-dasharray:none;stroke-width:0.01603535;stroke-miterlimit:4"
       inkscape:connector-curvature="0"
       id="path4"
       d="m 117.27369,190.03634 -4.04372,-4.12088 4.07597,-14.65642 6.35701,-4.19725 z m 47.47406,82.77807 -1.79313,5.4052 -2.90346,0.97324 -3.9412,-3.48308 z m -3.15914,-8.46644 5.14518,0.86448 0.56876,1.5243 -2.5548,6.07766 z m -1.91778,24.54049 -4.8633,3.11153 -10.74873,-5.569 -2.60227,-6.97949 z m -12.88357,-16.67358 -5.71039,-0.85138 -2.66832,-6.76702 3.5925,-4.51964 z m -4.78621,-12.13804 -4.70318,1.64785 -2.76619,-2.37855 0.92451,-4.897 z m -6.54486,-5.6277 -4.69143,3.36508 -5.1416,-2.32681 -0.56853,-5.74544 z m 27.69257,-125.43281 4.15379,4.00991 -7.14174,28.66475 -6.53939,5.56514 z m -12.31814,122.44751 7.87289,1.62767 4.87289,5.83594 -1.98779,5.42052 z m -9.37409,27.98766 4.35752,-8.50103 6.12815,-3.72593 5.06419,2.7726 z"
       class="sticker" />
    <path
       style="fill:none;stroke:#000000;stroke-width:0.01603535;stroke-linecap:butt;stroke-linejoin:bevel;stroke-dasharray:none;stroke-dashoffset:0;stroke-opacity:1;stroke-miterlimit:4"
       inkscape:connector-curvature="0"
       id="path6"
       d="m 142.00105,260.07684 4.78621,12.13804 m 6.83416,-104.95875 9.52734,-38.2398 m -12.31814,122.44751 6.17577,18.5333 m -0.89643,5.71263 8.63779,-2.89536 m -47.47406,-82.77807 17.92543,7.68022 m 0.25707,56.73258 6.54486,5.6277 m -16.94642,-10.33487 10.40156,4.70717 m 7.07858,-7.18 -17.48014,2.47283 m 13.1301,-15.67002 -13.1301,15.67002 m 31.95176,20.25517 -15.54986,9.45436 m 0,0 14.65343,-3.74173 m -5.27934,-24.24593 -4.04336,20.75104 m 6.83416,-104.95875 -29.95847,-0.19434"
       class="convex" />
    <path
       style="fill:none;stroke:#000000;stroke-width:0.01603535;stroke-linecap:butt;stroke-linejoin:bevel;stroke-dasharray:none;stroke-dashoffset:0;stroke-opacity:1;stroke-miterlimit:4"
       inkscape:connector-curvature="0"
       id="path8"
       d="m 161.58861,264.34797 -10.75799,-12.88413 m 13.91713,21.35057 -3.15914,-8.46644 M 138.18473,234.07195 99.009176,194.89224 m 42.447354,84.55926 18.2143,9.43696 m 5.07692,-16.07405 -7.74136,-2.81727 m -7.17984,-160.7969 3.79487,58.05589 m -18.4223,30.46043 -11.53617,-30.65477 m 18.3381,93.01505 8.82957,-8.613 m -27.16767,-84.40205 -6.38926,22.97455 m 17.92543,7.68022 -36.189944,-2.82432 m 42.991874,65.1846 0.53372,-12.8077 m -7.07858,7.18 7.07858,-7.18 m 13.57519,28.44063 0.89643,-5.71263 m 4.58222,-5.64917 -4.58222,5.64917"
       class="concave" />
    <path
       style="fill:none;stroke:#ff0000;stroke-width:0.01603535;stroke-linecap:butt;stroke-linejoin:bevel;stroke-miterlimit:4;stroke-dasharray:none;stroke-dashoffset:0;stroke-opacity:1"
       inkscape:connector-curvature="0"
       id="path10"
       d="m 158.70351,253.09151 4.87289,5.83594 -1.98779,5.42052 5.14518,0.86448 0.56876,1.5243 -2.5548,6.07766 -1.79313,5.4052 -2.90346,0.97324 -3.9412,-3.48308 3.56087,13.17869 -4.8633,3.11153 -10.74873,-5.569 -2.60227,-6.97949 5.33073,-7.23662 10.21913,-2.21774 0,0 -10.21913,2.21774 -5.71039,-0.85138 -2.66832,-6.76702 3.5925,-4.51964 -4.70318,1.64785 -2.76619,-2.37855 0.92451,-4.897 -4.69143,3.36508 -5.1416,-2.32681 -0.56853,-5.74544 -26.045454,-54.84973 18.264514,-4.8559 -4.04372,-4.12088 4.07597,-14.65642 6.35701,-4.19725 26.1636,-57.86155 13.32221,19.81609 4.15379,4.00991 -7.14174,28.66475 -6.53939,5.56514 -18.4223,30.46043 2.98561,36.35539 4.35004,13.19719 8.29585,4.1947 z"
       class="outer"
       sodipodi:nodetypes="ccccccccccccccccccccccccccccccccccccccccc" />
  </g>
  <g
     id="g22"
     transform="matrix(2.2,0,0,2.2,15.844536,-9.1098902)"
     style="stroke-width:0.01603535;stroke-miterlimit:4;stroke-dasharray:none">
    <path
       style="fill:#ffffff;fill-opacity:1;stroke:none;stroke-linecap:butt;stroke-linejoin:bevel;stroke-dasharray:none;stroke-width:0.01603535;stroke-miterlimit:4"
       inkscape:connector-curvature="0"
       id="path14"
       d="m 95.909488,133.17765 3.099688,4.87086 -16.339317,31.34965 -5.768135,0.24898 z m -36.018636,104.55762 0.678897,-5.73345 5.035576,-2.16314 4.625857,3.45467 z m -4.679046,-6.21239 1.178741,5.78913 -6.638106,6.3424 -18.6086,10.86428 z m 43.79737,50.20563 -3.000327,4.93268 -30.504506,-0.6977 -7.048446,-5.16252 z m -28.777994,-48.43516 6.534338,4.63072 4.568636,15.88663 -3.752776,5.04166 z"
       class="sticker" />
    <path
       style="fill:none;stroke:#000000;stroke-width:0.01603535;stroke-linecap:butt;stroke-linejoin:bevel;stroke-dasharray:none;stroke-dashoffset:0;stroke-opacity:1;stroke-miterlimit:4"
       inkscape:connector-curvature="0"
       id="path16"
       d="M 76.901724,169.64714 73.45355,103.17112 m -32.408241,48.29183 23.271911,73.44593 m -5.861323,55.89209 1.434955,-43.0657 M 23.898168,192.01211 64.31722,224.90888 m -54.655234,5.75314 45.54982,0.86086"
       class="convex" />
    <path
       style="fill:none;stroke:#000000;stroke-width:0.01603535;stroke-linecap:butt;stroke-linejoin:bevel;stroke-dasharray:none;stroke-dashoffset:0;stroke-opacity:1;stroke-miterlimit:4"
       inkscape:connector-curvature="0"
       id="path18"
       d="M 77.58138,258.85236 59.890852,237.73527 M 76.901724,169.64714 95.909488,133.17765 M 58.455897,280.80097 31.143841,254.51869 m 27.312056,26.28228 40.553279,0.92754 m -28.777994,-48.43516 -10.34033,4.44192 M 76.901724,169.64714 41.045309,151.46295 m -17.147141,40.54916 31.313638,39.51077 M 77.58138,258.85236 58.455897,280.80097 M 77.58138,258.85236 70.231182,233.29335 m -60.569196,-2.63133 21.481855,23.85667 m 0,0 24.067965,-22.99581 m -39.267121,53.94356 15.199156,-30.94775 m -10.211207,37.4813 10.211207,-37.4813 M 5,253.48089 l 26.143841,1.0378"
       class="concave" />
    <path
       style="fill:none;stroke:#ff0000;stroke-width:0.01603535;stroke-linecap:butt;stroke-linejoin:bevel;stroke-dasharray:none;stroke-dashoffset:0;stroke-opacity:1;stroke-miterlimit:4"
       inkscape:connector-curvature="0"
       id="path20"
       d="m 5,253.48089 4.661986,-22.81887 14.236182,-38.64991 17.147141,-40.54916 32.408241,-48.29183 22.455938,30.00653 3.099688,4.87086 -16.339317,31.34965 -5.768135,0.24898 -12.584504,55.26174 -9.105414,6.614 1.178741,5.78913 -6.638106,6.3424 -18.6086,10.86428 28.747011,-16.78342 0.678897,-5.73345 5.035576,-2.16314 4.625857,3.45467 6.534338,4.63072 4.568636,15.88663 -3.752776,5.04166 21.427796,22.87615 -3.000327,4.93268 -30.504506,-0.6977 -7.048446,-5.16252 -37.523263,11.19902 -4.987949,-6.53355 z"
       class="outer" />
  </g>
  <g
     id="g32"
     transform="matrix(2.2,0,0,2.2,-19.750501,-30.466912)"
     style="stroke-width:0.01603535;stroke-miterlimit:4;stroke-dasharray:none">
    <path
       style="fill:#ffffff;fill-opacity:1;stroke:none;stroke-linecap:butt;stroke-linejoin:bevel;stroke-dasharray:none;stroke-width:0.01603535;stroke-miterlimit:4"
       inkscape:connector-curvature="0"
       id="path24"
       d="m 186.50869,174.41197 5.57572,7.39545 2.77582,36.57125 -4.76717,3.25688 z m 14.13479,-46.21706 2.28388,9.62856 -10.79302,35.29027 -5.62565,1.29823 z m -10.55042,93.44064 5.11354,2.68048 0.69055,16.92133 -4.77435,5.63149 z m -16.51131,39.31503 -5.51802,-2.40295 -0.76118,-4.19248 4.40389,-3.73351 z"
       class="sticker" />
    <path
       style="fill:none;stroke:#000000;stroke-width:0.01603535;stroke-linecap:butt;stroke-linejoin:bevel;stroke-dasharray:none;stroke-dashoffset:0;stroke-opacity:1;stroke-miterlimit:4"
       inkscape:connector-curvature="0"
       id="path26"
       d="m 171.70644,250.62164 19.41636,-3.75279 m 7.04351,12.86514 -18.25825,-0.48551 m -8.20162,-8.62684 18.38662,-28.98609 m -10.185,37.61293 11.21474,-12.37963 m 11.80456,33.14776 -20.7222,-2.73376 m -9.44792,-99.98607 13.75145,-2.88481 m -14.80225,76.20967 1.87531,10.32894 m 17.57543,-139.26891 -4.64849,52.7303"
       class="convex" />
    <path
       style="fill:none;stroke:#000000;stroke-width:0.01603535;stroke-linecap:butt;stroke-linejoin:bevel;stroke-dasharray:none;stroke-dashoffset:0;stroke-opacity:1;stroke-miterlimit:4"
       inkscape:connector-curvature="0"
       id="path28"
       d="m 182.20516,277.28285 15.96115,-17.54886 m -29.94281,-29.32836 21.86956,-8.77008 m 0,0 -3.58437,-47.22358 m -13.75145,2.88481 17.33582,44.33877 m -18.38662,28.98609 8.20162,8.62684 m 6.60063,-84.83651 14.13479,-46.21706 m -9.52068,118.67394 -1.02974,-25.2333"
       class="concave" />
    <path
       style="fill:none;stroke:#ff0000;stroke-width:0.01603535;stroke-linecap:butt;stroke-linejoin:bevel;stroke-dasharray:none;stroke-dashoffset:0;stroke-opacity:1;stroke-miterlimit:4"
       inkscape:connector-curvature="0"
       id="path30"
       d="m 173.58175,260.95058 -5.51802,-2.40295 -0.76118,-4.19248 4.40389,-3.73351 -3.48294,-20.21601 4.53374,-53.10885 18.39994,-55.61511 9.4863,6.51324 2.28388,9.62856 -10.79302,35.29027 -5.62565,1.29823 5.57572,7.39545 2.77582,36.57125 -4.76717,3.25688 5.11354,2.68048 0.69055,16.92133 -4.77435,5.63149 7.04351,12.86514 4.76105,20.28262 -8.93879,11.98338 -11.78341,-14.71714 -2.2971,-18.03437 z"
       class="outer" />
  </g>
  <g
     id="g40"
     transform="matrix(2.2,0,0,2.2,124.4094,12.247132)"
     style="stroke-width:0.01603535;stroke-miterlimit:4;stroke-dasharray:none">
    <path
       style="fill:#ffffff;fill-opacity:1;stroke:none;stroke-linecap:butt;stroke-linejoin:bevel;stroke-dasharray:none;stroke-width:0.01603535;stroke-miterlimit:4"
       inkscape:connector-curvature="0"
       id="path34"
       d="M 68.829206,103.17112 40.793863,78.822534 5,38.060988 6.852273,32.592679 Z"
       class="sticker" />
    <path
       style="fill:none;stroke:#000000;stroke-width:0.01603535;stroke-linecap:butt;stroke-linejoin:bevel;stroke-dasharray:none;stroke-dashoffset:0;stroke-opacity:1;stroke-miterlimit:4"
       inkscape:connector-curvature="0"
       id="path36"
       d="M 68.829206,103.17112 35.270241,16.497905 M 68.829206,103.17112 22.911352,20.680959 M 68.829206,103.17112 46.992094,12.00756 M 6.852273,32.592679 68.829206,103.17112 m 0,0 L 15.568814,25.218959 M 68.829206,103.17112 56.070876,9.284104"
       class="concave" />
    <path
       style="fill:none;stroke:#ff0000;stroke-width:0.01603535;stroke-linecap:butt;stroke-linejoin:bevel;stroke-dasharray:none;stroke-dashoffset:0;stroke-opacity:1;stroke-miterlimit:4"
       inkscape:connector-curvature="0"
       id="path38"
       d="M 46.992094,12.00756 56.070876,9.284104 68.829206,9.243245 V 103.17112 L 40.793863,78.822534 5,38.060988 l 1.852273,-5.468309 8.716541,-7.37372 7.342538,-4.538 12.358889,-4.183054 z"
       class="outer" />
  </g>
</svg>
