<?xml version="1.0" encoding="UTF-8" standalone="no"?>
<svg
   xmlns:dc="http://purl.org/dc/elements/1.1/"
   xmlns:cc="http://creativecommons.org/ns#"
   xmlns:rdf="http://www.w3.org/1999/02/22-rdf-syntax-ns#"
   xmlns:svg="http://www.w3.org/2000/svg"
   xmlns="http://www.w3.org/2000/svg"
   xmlns:sodipodi="http://sodipodi.sourceforge.net/DTD/sodipodi-0.dtd"
   xmlns:inkscape="http://www.inkscape.org/namespaces/inkscape"
   version="1.1"
   width="45cm"
   height="70cm"
   viewBox="0 0 450 700"
   id="svg56"
   sodipodi:docname="unicorn_new_page5.svg"
   inkscape:version="0.92.2 5c3e80d, 2017-08-06">
  <metadata
     id="metadata62">
    <rdf:RDF>
      <cc:Work
         rdf:about="">
        <dc:format>image/svg+xml</dc:format>
        <dc:type
           rdf:resource="http://purl.org/dc/dcmitype/StillImage" />
        <dc:title></dc:title>
      </cc:Work>
    </rdf:RDF>
  </metadata>
  <defs
     id="defs60" />
  <sodipodi:namedview
     pagecolor="#ffffff"
     bordercolor="#666666"
     borderopacity="1"
     objecttolerance="10"
     gridtolerance="10"
     guidetolerance="10"
     inkscape:pageopacity="0"
     inkscape:pageshadow="2"
     inkscape:window-width="1886"
     inkscape:window-height="1014"
     id="namedview58"
     showgrid="false"
     units="cm"
     showborder="true"
     inkscape:zoom="8"
     inkscape:cx="1336.7063"
     inkscape:cy="957.19039"
     inkscape:window-x="0"
     inkscape:window-y="1"
     inkscape:window-maximized="0"
     inkscape:current-layer="svg56" />
  <style
     type="text/css"
     id="style2">
    path {
        fill: none;
        stroke-linecap: butt;
        stroke-linejoin: bevel;
        stroke-dasharray: none;
    }
    path.outer {
        stroke: #ff0000;
        stroke-dasharray: none;
        stroke-dashoffset: 0;
        stroke-width: 0.3;
        stroke-opacity: 1.0;
    }
    path.convex {
        stroke: #000000;
        stroke-dasharray: 0.50,1.00;
        stroke-dashoffset:0;
        stroke-width:0.2;
        stroke-opacity: 1.0
    }
    path.concave {
        stroke: #000000;
        stroke-dasharray: none;
        stroke-dashoffset: 0;
        stroke-width: 0.2;
        stroke-opacity: 1.0
    }
    path.freestyle {
        stroke: #000000;
        stroke-dasharray: none;
        stroke-dashoffset: 0;
        stroke-width: 0.2;
        stroke-opacity: 1.0
    }
    path.outer_background {
        stroke: #ffffff;
        stroke-opacity: 1.0;
        stroke-width: 0.5
    }
    path.inner_background {
        stroke: #ffffff;
        stroke-opacity: 1.0;
        stroke-width: 0.2
    }
    path.sticker {
        fill: #ffffff;
        stroke: none;
        fill-opacity: 1.0;
    }
    path.arrow {
        fill: #000;
    }
    text {
        font-style: normal;
        fill: #000000;
        fill-opacity: 1.0;
        stroke: none;
    }
    text, tspan {
        text-anchor:middle;
    }
    </style>
  <g
     id="g54"
     style="stroke-width:0.01603535;stroke-miterlimit:4;stroke-dasharray:none"
     transform="matrix(2.2,0,0,2.2,72.574129,-6.3562535)">
    <g
       id="g12"
       style="stroke-width:0.01603535;stroke-miterlimit:4;stroke-dasharray:none">
      <path
         class="sticker"
         d="m 126.15549,229.43816 5.45717,1.88483 6.71022,34.6963 -4.35454,3.81651 z m 8.24552,-60.39341 3.92187,6.36304 -5.08992,27.9051 -5.43685,1.9427 z m -6.65118,36.33495 4.79818,3.21106 -1.14601,17.29291 -5.24651,3.55449 z m -6.21812,-42.96614 4.85632,-3.1224 7.73707,3.9867 0.27591,5.76689 z m -7.36317,37.83176 13.58129,5.13434 1e-5,4e-5 z m -2.65406,-32.61732 0.90881,-6.10994 4.23914,-2.20668 4.86928,3.10218 z m -15.820976,72.09265 -5.44668,-1.91495 -4.646227,-24.75688 4.218832,-4.62751 z m 6.309506,-35.91214 -4.101728,-4.06314 7.436038,-28.2858 6.17716,-3.83157 z m 2.03084,85.58456 -5.611385,-3.22432 -6.35881,-37.87105 3.629849,-8.57705 z m -14.214421,-80.97176 8.276037,4.06027 7.945524,13.21293 2.58243,13.99668 z m 44.148911,61.41449 0.31807,5.76473 -25.10113,16.39946 -5.15143,-2.60692 z"
         id="path4"
         style="fill:#ffffff;fill-opacity:1;stroke:none;stroke-width:0.01603535;stroke-linecap:butt;stroke-linejoin:bevel;stroke-miterlimit:4;stroke-dasharray:none"
         inkscape:connector-curvature="0"
         sodipodi:nodetypes="cccccccccccccccccccccccccccccccccccccccccccccccccccccc" />
      <path
         class="convex"
         d="m 89.819429,208.42131 5.874075,31.29934 m 15.820976,-72.09265 22.88653,1.41675 m -30.36716,120.34832 29.93449,-19.55727 m -31.96533,-66.02729 24.15248,25.62965 m -11.98695,-29.19284 20.23247,-31.20057 m 0,0 -12.8693,-6.63119 m -25.838206,77.30709 8.340346,49.67242 m 7.48063,-121.76507 -9.51147,36.18051 m 12.16553,-3.56319 11.98695,29.19284"
         id="path6"
         style="fill:none;stroke:#000000;stroke-width:0.01603535;stroke-linecap:butt;stroke-linejoin:bevel;stroke-miterlimit:4;stroke-dasharray:none;stroke-dashoffset:0;stroke-opacity:1"
         inkscape:connector-curvature="0" />
      <path
         class="concave"
         d="m 95.693504,239.72065 12.929916,-0.0295 m 0,0 25.34492,30.14461 m 0,0 -7.81285,-40.39764 m -4.62378,-67.0246 -10.01723,5.21444 m -7.48063,121.76507 4.58957,-49.70188 m 2.89106,-72.06319 2.65406,32.61732 m 11.98695,29.19284 1.59434,-24.05846 m -19.12641,34.31149 17.53207,-10.25303 m -17.53207,10.25303 -18.803991,-31.26988 m 37.976681,-3.16572 6.6049,-36.21084 m -6.65118,36.33495 -13.58129,-5.13438 m -12.16553,3.56319 12.16553,-3.56319"
         id="path8"
         style="fill:none;stroke:#000000;stroke-width:0.01603535;stroke-linecap:butt;stroke-linejoin:bevel;stroke-miterlimit:4;stroke-dasharray:none;stroke-dashoffset:0;stroke-opacity:1"
         inkscape:connector-curvature="0" />
      <path
         class="outer"
         d="m 102.00301,203.80851 -4.101728,-4.06314 7.436038,-28.2858 6.17716,-3.83157 0.90881,-6.10994 4.23914,-2.20668 4.86928,3.10218 4.85632,-3.1224 7.73707,3.9867 0.27591,5.76689 3.92187,6.36304 -5.08992,27.9051 -5.43685,1.9427 -13.62757,-5.01027 13.5568,4.98469 0.0245,0.14969 4.79818,3.21106 -1.14601,17.29291 -5.24651,3.55449 5.45717,1.88483 6.71022,34.6963 -4.35454,3.81651 0.31807,5.76473 -25.10113,16.39946 -5.15143,-2.60692 -5.611385,-3.22432 -6.35881,-37.87105 3.629849,-8.57705 -5.44668,-1.91495 -4.646227,-24.75688 4.218832,-4.62751 8.276037,4.06027 7.945524,13.21293 2.58243,13.99668 z"
         id="path10"
         style="fill:none;stroke:#ff0000;stroke-width:0.01603535;stroke-linecap:butt;stroke-linejoin:bevel;stroke-miterlimit:4;stroke-dasharray:none;stroke-dashoffset:0;stroke-opacity:1"
         inkscape:connector-curvature="0"
         sodipodi:nodetypes="ccccccccccccccccccccccccccccccccccc" />
    </g>
    <g
       id="g22"
       style="stroke-width:0.01603535;stroke-miterlimit:4;stroke-dasharray:none">
      <path
         class="sticker"
         d="m 77.551437,197.90915 5.674176,2.00997 2.374984,9.29542 -4.12976,4.03465 z m -20.0843,-29.65688 -5.555838,-1.57034 -7.05431,-27.84323 4.001815,-4.56337 z"
         id="path14"
         style="fill:#ffffff;fill-opacity:1;stroke:none;stroke-width:0.01603535;stroke-linecap:butt;stroke-linejoin:bevel;stroke-miterlimit:4;stroke-dasharray:none"
         inkscape:connector-curvature="0" />
      <path
         class="convex"
         d="m 57.467137,168.25227 21.883786,3.40465 m -23.352012,28.46226 21.552526,-2.21003 m -12.71737,37.42336 19.874762,-8.47545"
         id="path16"
         style="fill:none;stroke:#000000;stroke-width:0.01603535;stroke-linecap:butt;stroke-linejoin:bevel;stroke-miterlimit:4;stroke-dasharray:none;stroke-dashoffset:0;stroke-opacity:1"
         inkscape:connector-curvature="0" />
      <path
         class="concave"
         d="m 79.350923,171.65692 -23.352012,28.46226 m -7.140107,-65.84385 8.608333,33.97694 M 84.105332,269.35377 64.834067,235.33251 M 84.105332,269.35377 66.9995,265.9392 m -6.037958,-46.88973 20.509295,-5.80028 m 0,0 -3.9194,-15.34004 m -20.0843,-29.65688 28.133452,-28.75014 m -24.639047,79.54734 16.589895,-21.14032"
         id="path18"
         style="fill:none;stroke:#000000;stroke-width:0.01603535;stroke-linecap:butt;stroke-linejoin:bevel;stroke-miterlimit:4;stroke-dasharray:none;stroke-dashoffset:0;stroke-opacity:1"
         inkscape:connector-curvature="0" />
      <path
         class="outer"
         d="m 62.833657,286.11001 4.165843,-20.17081 -2.165433,-30.60669 -3.872525,-16.28304 -4.962631,-18.93029 1.468226,-31.86691 -5.555838,-1.57034 -7.05431,-27.84323 4.001815,-4.56337 36.741785,5.2268 -6.249666,32.15479 -1.799486,26.25223 5.674176,2.00997 2.374984,9.29542 -4.12976,4.03465 3.237992,13.60787 -0.603497,42.49671 -5.571916,22.64622 z"
         id="path20"
         style="fill:none;stroke:#ff0000;stroke-width:0.01603535;stroke-linecap:butt;stroke-linejoin:bevel;stroke-miterlimit:4;stroke-dasharray:none;stroke-dashoffset:0;stroke-opacity:1"
         inkscape:connector-curvature="0" />
    </g>
    <g
       id="g32"
       style="stroke-width:0.01603535;stroke-miterlimit:4;stroke-dasharray:none">
      <path
         class="sticker"
         d="M 17.50381,172.33614 11.858015,171.12851 5,149.92915 7.421487,141.16989 Z m 4.996918,25.83502 -5.457205,-1.88474 -3.114954,-16.10489 3.575241,-7.84539 z m 17.472592,-65.55527 4.883665,3.60826 -0.907846,27.51401 -5.092479,2.72029 z m -26.559597,93.95634 -3.869025,-4.41373 2.3707,-7.66885 5.629537,-1.28126 z"
         id="path24"
         style="fill:#ffffff;fill-opacity:1;stroke:none;stroke-width:0.01603535;stroke-linecap:butt;stroke-linejoin:bevel;stroke-miterlimit:4;stroke-dasharray:none"
         inkscape:connector-curvature="0" />
      <path
         class="convex"
         d="m 22.500728,198.17116 22.356261,1.11735 M 17.50381,172.33614 38.85666,166.45845 m -25.442937,60.11378 19.872939,8.01353"
         id="path26"
         style="fill:none;stroke:#000000;stroke-width:0.01603535;stroke-linecap:butt;stroke-linejoin:bevel;stroke-miterlimit:4;stroke-dasharray:none;stroke-dashoffset:0;stroke-opacity:1"
         inkscape:connector-curvature="0" />
      <path
         class="concave"
         d="m 17.50381,172.33614 27.353179,26.95237 m -27.312054,13.91988 -4.131212,13.36384 M 7.421487,141.16989 17.50381,172.33614 M 7.421487,141.16989 38.85666,166.45845 m -21.35285,5.87769 4.996918,25.83502 m 16.355932,-31.71271 1.11666,-33.84256 m -28.748159,136.40095 17.304268,-2.19807 m -10.984494,-53.61038 20.723308,5.2016 m -27.043082,50.60685 22.061501,-34.43108 m -10.785934,-36.4146 15.767515,20.23883"
         id="path28"
         style="fill:none;stroke:#000000;stroke-width:0.01603535;stroke-linecap:butt;stroke-linejoin:bevel;stroke-miterlimit:4;stroke-dasharray:none;stroke-dashoffset:0;stroke-opacity:1"
         inkscape:connector-curvature="0" />
      <path
         class="outer"
         d="m 13.413723,226.57223 -3.869025,-4.41373 2.3707,-7.66885 5.629537,-1.28126 4.955793,-15.03723 -5.457205,-1.88474 -3.114954,-16.10489 3.575241,-7.84539 -5.645795,-1.20763 L 5,149.92915 l 2.421487,-8.75926 32.551833,-8.554 4.883665,3.60826 -0.907846,27.51401 -5.092479,2.72029 6.000329,32.83006 -6.588746,19.12148 -4.981581,16.17577 -4.757233,32.23301 2.731014,20.41465 -16.076509,4.76657 -3.958773,-22.98315 z"
         id="path30"
         style="fill:none;stroke:#ff0000;stroke-width:0.01603535;stroke-linecap:butt;stroke-linejoin:bevel;stroke-miterlimit:4;stroke-dasharray:none;stroke-dashoffset:0;stroke-opacity:1"
         inkscape:connector-curvature="0" />
    </g>
    <g
       id="g42"
       style="stroke-width:0.01603535;stroke-miterlimit:4;stroke-dasharray:none">
      <path
         class="sticker"
         d="m 122.17019,115.20285 5.43561,1.94614 4.63632,25.5097 -4.02678,5.80552 z m 0.53444,-24.889986 4.80694,3.941297 -0.84467,16.688839 -5.13952,2.63032 z m 5.51071,58.151346 -0.1621,5.77124 -9.35383,5.05571 -5.0444,-2.95714 z m -6.68796,-34.89089 -0.16666,1.89398 -13.05404,4.26297 z m -7.87237,42.7607 -4.00085,2.61578 -3.12274,-1.579 -0.26489,-4.77271 z m -23.868222,-41.69123 -4.186191,-4.79275 5.301945,-28.187628 5.464665,-2.004236 z m 16.479742,37.9553 -6.26237,-4.53186 -6.609108,-26.89561 4.166677,-3.99651 z M 96.367207,79.658176 91.631641,72.495158 93.02855,35.14948 98.153283,31.90815 Z m 8.849663,0.797316 -4.70911,22.587848 -2.784778,6.17002 -7.936194,5.42943 z m -7.063587,-48.547342 5.035137,-2.825022 24.5265,14.565498 -0.071,5.773067 z m 29.490637,17.513543 4.59818,3.62739 -4.22737,34.997463 -5.3101,2.266318 z"
         id="path34"
         style="fill:#ffffff;fill-opacity:1;stroke:none;stroke-width:0.01603535;stroke-linecap:butt;stroke-linejoin:bevel;stroke-miterlimit:4;stroke-dasharray:none"
         inkscape:connector-curvature="0" />
      <path
         class="convex"
         d="M 97.561729,117.17411 122.70463,90.312864 M 98.153283,31.90815 96.367207,79.658176 m 0,0 -6.580419,34.984614 m 18.519892,5.08748 19.90866,28.73394 m -21.94881,4.13388 21.94881,-4.13388 m -14.56033,7.86981 14.56033,-7.86981 m -30.653611,-31.2901 8.704801,35.42398 M 127.64392,49.421693 98.153283,31.90815"
         id="path36"
         style="fill:none;stroke:#000000;stroke-width:0.01603535;stroke-linecap:butt;stroke-linejoin:bevel;stroke-miterlimit:4;stroke-dasharray:none;stroke-dashoffset:0;stroke-opacity:1"
         inkscape:connector-curvature="0" />
      <path
         class="concave"
         d="m 98.153283,31.90815 7.063587,48.547342 m 3.08981,39.274778 13.2207,-6.15695 M 105.21687,80.455492 127.64392,49.421693 m -6.11654,64.151627 1.17725,-23.260456 m -25.142901,26.861246 10.744951,2.55616 m -11.939473,-40.072094 8.849663,0.797316 m 3.08981,39.274778 14.39795,-29.417406 M 89.786788,114.64279 105.21687,80.455492 m 22.99847,68.008718 -6.04515,-33.26136 m -16.95332,-34.747358 17.48776,9.857372 m 0,0 4.93929,-40.891171 m -21.37739,103.176397 7.38848,3.73593 m -7.38848,-3.73593 2.04015,-32.86782"
         id="path38"
         style="fill:none;stroke:#000000;stroke-width:0.01603535;stroke-linecap:butt;stroke-linejoin:bevel;stroke-miterlimit:4;stroke-dasharray:none;stroke-dashoffset:0;stroke-opacity:1"
         inkscape:connector-curvature="0" />
      <path
         class="outer"
         d="m 100.00416,148.06623 -6.609108,-26.89561 4.166677,-3.99651 7.655141,-36.718618 -4.70911,22.587848 -2.784778,6.17002 -7.936194,5.42943 -4.186191,-4.79275 5.301945,-28.187628 5.464665,-2.004236 -4.735566,-7.163018 1.396909,-37.345678 5.124733,-3.24133 5.035137,-2.825022 24.5265,14.565498 -0.071,5.773067 4.59818,3.62739 -4.22737,34.997463 -5.3101,2.266318 4.80694,3.941297 -0.84467,16.688839 -5.13952,2.63032 -0.16666,1.89398 -13.05404,4.26297 13.86351,-4.52742 5.43561,1.94614 4.63632,25.5097 -4.02678,5.80552 -0.1621,5.77124 -9.35383,5.05571 -5.0444,-2.95714 -4.00085,2.61578 -3.12274,-1.579 -0.26489,-4.77271 z"
         id="path40"
         style="fill:none;stroke:#ff0000;stroke-width:0.01603535;stroke-linecap:butt;stroke-linejoin:bevel;stroke-miterlimit:4;stroke-dasharray:none;stroke-dashoffset:0;stroke-opacity:1"
         inkscape:connector-curvature="0" />
    </g>
    <g
       id="g52"
       style="stroke-width:0.01603535;stroke-miterlimit:4;stroke-dasharray:none">
      <path
         class="sticker"
         d="m 34.464884,106.98103 0.889372,5.70459 L 10.620259,132.61589 5,130.72338 Z m 28.309552,-5.26978 -5.58316,-1.47025 -6.142069,-22.533744 3.630441,-5.693793 z m -8.094788,-29.697787 2.057187,6.431758 -15.780091,27.296429 -6.49186,1.23938 z"
         id="path44"
         style="fill:#ffffff;fill-opacity:1;stroke:none;stroke-width:0.01603535;stroke-linecap:butt;stroke-linejoin:bevel;stroke-miterlimit:4;stroke-dasharray:none"
         inkscape:connector-curvature="0" />
      <path
         class="convex"
         d="M 78.984302,25.303419 54.679648,72.013463 m 0,0 22.867013,-4.998669 m -22.867013,4.998669 8.094788,29.697787 m 16.209866,-0.15713 -16.209866,0.15713 M 31.303109,64.1095 54.679648,72.013463 M 5,130.72338 34.464884,106.98103"
         id="path46"
         style="fill:none;stroke:#000000;stroke-width:0.01603535;stroke-linecap:butt;stroke-linejoin:bevel;stroke-miterlimit:4;stroke-dasharray:none;stroke-dashoffset:0;stroke-opacity:1"
         inkscape:connector-curvature="0" />
      <path
         class="concave"
         d="M 62.854511,27.499254 54.679648,72.013463 M 34.464884,106.98103 54.679648,72.013463 M 34.464884,106.98103 8.73749,105.74719 m 54.036946,-4.03594 14.772225,-34.696456"
         id="path48"
         style="fill:none;stroke:#000000;stroke-width:0.01603535;stroke-linecap:butt;stroke-linejoin:bevel;stroke-miterlimit:4;stroke-dasharray:none;stroke-dashoffset:0;stroke-opacity:1"
         inkscape:connector-curvature="0" />
      <path
         class="outer"
         d="m 57.191276,100.241 -6.142069,-22.533744 3.630441,-5.693793 2.057187,6.431758 -15.780091,27.296429 -6.49186,1.23938 0.889372,5.70459 L 10.620259,132.61589 5,130.72338 8.73749,105.74719 31.303109,64.1095 62.854511,27.499254 78.984302,25.303419 77.546661,67.014794 78.984302,101.55412 78.740877,123.01397 62.774436,101.71125 Z"
         id="path50"
         style="fill:none;stroke:#ff0000;stroke-width:0.01603535;stroke-linecap:butt;stroke-linejoin:bevel;stroke-miterlimit:4;stroke-dasharray:none;stroke-dashoffset:0;stroke-opacity:1"
         inkscape:connector-curvature="0" />
    </g>
  </g>
</svg>
