<?xml version="1.0" encoding="UTF-8" standalone="no"?>
<svg
   xmlns:dc="http://purl.org/dc/elements/1.1/"
   xmlns:cc="http://creativecommons.org/ns#"
   xmlns:rdf="http://www.w3.org/1999/02/22-rdf-syntax-ns#"
   xmlns:svg="http://www.w3.org/2000/svg"
   xmlns="http://www.w3.org/2000/svg"
   xmlns:sodipodi="http://sodipodi.sourceforge.net/DTD/sodipodi-0.dtd"
   xmlns:inkscape="http://www.inkscape.org/namespaces/inkscape"
   version="1.1"
   width="45cm"
   height="70cm"
   viewBox="0 0 450 699.99998"
   id="svg56"
   sodipodi:docname="unicorn_new_page4.svg"
   inkscape:version="0.92.2 5c3e80d, 2017-08-06">
  <metadata
     id="metadata62">
    <rdf:RDF>
      <cc:Work
         rdf:about="">
        <dc:format>image/svg+xml</dc:format>
        <dc:type
           rdf:resource="http://purl.org/dc/dcmitype/StillImage" />
        <dc:title></dc:title>
      </cc:Work>
    </rdf:RDF>
  </metadata>
  <defs
     id="defs60">
    <marker
       inkscape:stockid="Arrow1Lstart"
       orient="auto"
       refY="0.0"
       refX="0.0"
       id="Arrow1Lstart"
       style="overflow:visible"
       inkscape:isstock="true">
      <path
         id="path894"
         d="M 0.0,0.0 L 5.0,-5.0 L -12.5,0.0 L 5.0,5.0 L 0.0,0.0 z "
         style="fill-rule:evenodd;stroke:#000000;stroke-width:1.0pt"
         transform="scale(0.8) translate(12.5,0)" />
    </marker>
  </defs>
  <sodipodi:namedview
     pagecolor="#ffffff"
     bordercolor="#666666"
     borderopacity="1"
     objecttolerance="10"
     gridtolerance="10"
     guidetolerance="10"
     inkscape:pageopacity="1"
     inkscape:pageshadow="2"
     inkscape:window-width="1440"
     inkscape:window-height="805"
     id="namedview58"
     showgrid="false"
     units="cm"
     inkscape:document-units="cm"
     inkscape:pagecheckerboard="false"
     inkscape:zoom="0.4204826"
     inkscape:cx="1521.441"
     inkscape:cy="1924.4394"
     inkscape:window-x="0"
     inkscape:window-y="1"
     inkscape:window-maximized="1"
     inkscape:current-layer="svg56" />
  <style
     type="text/css"
     id="style2">
    path {
        fill: none;
        stroke-linecap: butt;
        stroke-linejoin: bevel;
        stroke-dasharray: none;
    }
    path.outer {
        stroke: #ff0000;
        stroke-dasharray: none;
        stroke-dashoffset: 0;
        stroke-width: 0.3;
        stroke-opacity: 1.0;
    }
    path.convex {
        stroke: #000000;
        stroke-dasharray: 0.50,1.00;
        stroke-dashoffset:0;
        stroke-width:0.2;
        stroke-opacity: 1.0
    }
    path.concave {
        stroke: #000000;
        stroke-dasharray: none;
        stroke-dashoffset: 0;
        stroke-width: 0.2;
        stroke-opacity: 1.0
    }
    path.freestyle {
        stroke: #000000;
        stroke-dasharray: none;
        stroke-dashoffset: 0;
        stroke-width: 0.2;
        stroke-opacity: 1.0
    }
    path.outer_background {
        stroke: #ffffff;
        stroke-opacity: 1.0;
        stroke-width: 0.5
    }
    path.inner_background {
        stroke: #ffffff;
        stroke-opacity: 1.0;
        stroke-width: 0.2
    }
    path.sticker {
        fill: #ffffff;
        stroke: none;
        fill-opacity: 1.0;
    }
    path.arrow {
        fill: #000;
    }
    text {
        font-style: normal;
        fill: #000000;
        fill-opacity: 1.0;
        stroke: none;
    }
    text, tspan {
        text-anchor:middle;
    }
    </style>
  <g
     id="g12"
     transform="matrix(2.2,0,0,2.2,23.956268,23.248833)"
     style="stroke-width:0.01603535;stroke-miterlimit:4;stroke-dasharray:none">
    <path
       style="fill:#ffffff;fill-opacity:1;stroke:none;stroke-linecap:butt;stroke-linejoin:bevel;stroke-dasharray:none;stroke-width:0.01603535;stroke-miterlimit:4"
       inkscape:connector-curvature="0"
       id="path4"
       d="m 76.667515,11.248137 5.631417,-1.714975 24.951908,21.847576 -1.1219,5.663455 z m 49.888815,60.841039 -3.75813,-5.908832 5.34073,-22.941336 5.52431,-1.677886 z"
       class="sticker" />
    <path
       style="fill:none;stroke:#000000;stroke-width:0.01603535;stroke-linecap:butt;stroke-linejoin:bevel;stroke-dasharray:none;stroke-dashoffset:0;stroke-opacity:1;stroke-miterlimit:4"
       inkscape:connector-curvature="0"
       id="path6"
       d="m 150.39383,118.4885 -23.8375,-46.399324 m 7.10691,-30.528054 -7.10691,30.528054 M 106.12894,37.044193 76.667515,11.248137 m 49.888815,60.841039 22.35798,4.685267 m 1.34978,-34.723713 -16.60085,-0.489608 m -31.02571,38.200289 23.9188,-7.672235"
       class="convex" />
    <path
       style="fill:none;stroke:#000000;stroke-width:0.01603535;stroke-linecap:butt;stroke-linejoin:bevel;stroke-dasharray:none;stroke-dashoffset:0;stroke-opacity:1;stroke-miterlimit:4"
       inkscape:connector-curvature="0"
       id="path8"
       d="m 133.66324,41.561122 15.25107,35.213321 m -42.78537,-39.73025 -26.110475,1.468539 m 54.243445,77.795808 -7.70558,-44.219364 m -20.42739,-35.044983 -3.49141,42.717218"
       class="concave" />
    <path
       style="fill:none;stroke:#ff0000;stroke-width:0.01603535;stroke-linecap:butt;stroke-linejoin:bevel;stroke-dasharray:none;stroke-dashoffset:0;stroke-opacity:1;stroke-miterlimit:4"
       inkscape:connector-curvature="0"
       id="path10"
       d="m 150.39385,20.888026 -0.12976,21.162704 -1.34978,34.723713 1.47952,41.714057 -16.13192,-2.17996 -31.62438,-36.547129 -22.619065,-41.248679 -3.35095,-27.264595 5.631417,-1.714975 24.951908,21.847576 -1.1219,5.663455 20.42739,35.044983 -3.75813,-5.908832 5.34073,-22.941336 5.52431,-1.677886 z"
       class="outer" />
  </g>
  <g
     id="g22"
     transform="matrix(2.2,0,0,2.2,23.956268,23.248833)"
     style="stroke-width:0.01603535;stroke-miterlimit:4;stroke-dasharray:none">
    <path
       style="fill:#ffffff;fill-opacity:1;stroke:none;stroke-linecap:butt;stroke-linejoin:bevel;stroke-dasharray:none;stroke-width:0.01603535;stroke-miterlimit:4"
       inkscape:connector-curvature="0"
       id="path14"
       d="m 164.17097,192.30146 4.80211,3.20517 -2.37382,36.49981 -5.48137,7.23922 z m -3.05308,46.9442 5.61866,1.32819 10.66597,35.55142 -2.39642,9.41203 z m 6.98192,-74.13155 4.14845,6.25211 -2.71581,18.79329 -5.36148,2.14195 z"
       class="sticker" />
    <path
       style="fill:none;stroke:#000000;stroke-width:0.01603535;stroke-linecap:butt;stroke-linejoin:bevel;stroke-dasharray:none;stroke-dashoffset:0;stroke-opacity:1;stroke-miterlimit:4"
       inkscape:connector-curvature="0"
       id="path16"
       d="m 174.13478,152.27195 -20.2368,2.73179 m -6.69987,8.4888 16.97286,28.80892 m -17.14288,44.32738 14.0898,2.61682 m -7.21991,-84.24192 14.20183,10.11037 m -2.61451,126.88588 -4.36741,-52.75433 m 16.28464,-108.47316 -21.31478,4.57494 m -8.88964,28.1451 20.9017,1.62157"
       class="convex" />
    <path
       style="fill:none;stroke:#000000;stroke-width:0.01603535;stroke-linecap:butt;stroke-linejoin:bevel;stroke-dasharray:none;stroke-dashoffset:0;stroke-opacity:1;stroke-miterlimit:4"
       inkscape:connector-curvature="0"
       id="path18"
       d="m 161.11789,239.24566 3.05308,-46.9442 m -8.08322,-56.95402 18.04703,16.92451 m -26.93667,11.22059 -3.05709,21.11433 m 2.88707,52.02197 17.14288,-44.32738 m 10.83513,93.23584 -13.88821,-46.29164 m -16.97687,-54.63879 20.02995,7.69459 m 0,0 3.92884,-27.18735"
       class="concave" />
    <path
       style="fill:none;stroke:#ff0000;stroke-width:0.01603535;stroke-linecap:butt;stroke-linejoin:bevel;stroke-dasharray:none;stroke-dashoffset:0;stroke-opacity:1;stroke-miterlimit:4"
       inkscape:connector-curvature="0"
       id="path20"
       d="m 144.14102,184.60687 -9.1578,-9.60209 12.21489,-11.51224 6.69987,-8.4888 2.18977,-19.6563 9.76569,-16.85894 11.54909,12.284 -3.26775,21.49945 -6.03497,12.84216 4.14845,6.25211 -2.71581,18.79329 -5.36148,2.14195 4.80211,3.20517 -2.37382,36.49981 -5.48137,7.23922 5.61866,1.32819 10.66597,35.55142 -2.39642,9.41203 -9.5208,6.46269 -18.45721,-55.37115 z"
       class="outer" />
  </g>
  <g
     id="g32"
     transform="matrix(2.2,0,0,2.2,23.956268,23.248833)"
     style="stroke-width:0.01603535;stroke-miterlimit:4;stroke-dasharray:none">
    <path
       style="fill:#ffffff;fill-opacity:1;stroke:none;stroke-linecap:butt;stroke-linejoin:bevel;stroke-dasharray:none;stroke-width:0.01603535;stroke-miterlimit:4"
       inkscape:connector-curvature="0"
       id="path24"
       d="m 72.984588,203.6905 0.76443,-8.17745 8.199699,-8.84184 5.629085,1.28325 z m 57.120952,-79.08994 4.87768,6.03808 -0.24052,11.77014 -5.05793,2.784 z m -38.572366,78.53332 8.417144,2.21254 15.082482,17.84327 -1.95505,5.43242 z m -1.246102,55.80296 -5.634241,-1.26044 -13.712734,-43.78439 2.044491,-10.20151 z m 13.701718,-71.73719 1.9345,5.64398 -8.673003,11.0952 -5.717113,-0.80495 z m 6.67324,-15.55439 3.4568,4.62426 -4.13941,9.64842 -5.99063,1.28171 z m -23.084228,16.3092 -2.510689,-5.19902 11.908732,-17.50784 10.044375,-5.87677 z m 19.442418,-28.58363 -2.56875,-5.17056 15.69431,-23.63822 9.95976,-5.96149 z m 22.66455,-14.17805 2.37394,5.26285 -10.85812,15.09902 -10.53856,6.09061 z"
       class="sticker" />
    <path
       style="fill:none;stroke:#000000;stroke-width:0.01603535;stroke-linecap:butt;stroke-linejoin:bevel;stroke-dasharray:none;stroke-dashoffset:0;stroke-opacity:1;stroke-miterlimit:4"
       inkscape:connector-curvature="0"
       id="path26"
       d="m 110.66203,171.64526 -3.64181,-12.27443 m 6.05753,69.25128 -22.790678,30.31473 m 1.246102,-55.80296 -18.548586,0.55662 m 14.593214,-15.73604 3.955372,15.17942"
       class="convex" />
    <path
       style="fill:none;stroke:#000000;stroke-width:0.01603535;stroke-linecap:butt;stroke-linejoin:bevel;stroke-dasharray:none;stroke-dashoffset:0;stroke-opacity:1;stroke-miterlimit:4"
       inkscape:connector-curvature="0"
       id="path28"
       d="m 103.98879,187.19965 -16.410988,0.75481 m 42.106968,-42.76168 -22.66455,14.17805 m 22.66455,-14.17805 0.42077,-20.59222 m -23.08532,34.77027 -19.442418,28.58363 m 16.410988,-0.75481 3.03143,-27.82882 m -16.733148,99.56601 44.696148,-4.49385 M 87.577802,187.95446 72.984588,203.6905 m 37.677442,-32.04524 19.02274,-26.45248 M 72.984588,203.6905 90.287072,258.93684 M 113.07775,228.62211 91.533174,203.13388 M 113.07775,228.62211 72.984588,203.6905 m 18.548586,-0.55662 12.455616,-15.93423 m 0,0 6.67324,-15.55439"
       class="concave" />
    <path
       style="fill:none;stroke:#ff0000;stroke-width:0.01603535;stroke-linecap:butt;stroke-linejoin:bevel;stroke-dasharray:none;stroke-dashoffset:0;stroke-opacity:1;stroke-miterlimit:4"
       inkscape:connector-curvature="0"
       id="path30"
       d="m 109.65339,291.99999 -19.366318,-33.06315 -5.634241,-1.26044 -13.712734,-43.78439 2.044491,-10.20151 0.76443,-8.17745 8.199699,-8.84184 5.629085,1.28325 -2.510689,-5.19902 11.908732,-17.50784 10.044375,-5.87677 -2.56875,-5.17056 15.69431,-23.63822 9.95976,-5.96149 4.87768,6.03808 -0.24052,11.77014 -5.05793,2.784 2.37394,5.26285 -10.85812,15.09902 -10.53856,6.09061 3.4568,4.62426 -4.13941,9.64842 -5.99063,1.28171 1.9345,5.64398 -8.673003,11.0952 -5.717113,-0.80495 8.417144,2.21254 15.082482,17.84327 -1.95505,5.43242 21.90547,25.82088 z"
       class="outer" />
  </g>
  <g
     id="g42"
     transform="matrix(2.2,0,0,2.2,23.956268,23.248833)"
     style="stroke-width:0.01603535;stroke-miterlimit:4;stroke-dasharray:none">
    <path
       style="fill:#ffffff;fill-opacity:1;stroke:none;stroke-linecap:butt;stroke-linejoin:bevel;stroke-dasharray:none;stroke-width:0.01603535;stroke-miterlimit:4"
       inkscape:connector-curvature="0"
       id="path34"
       d="m 71.998511,10.007734 4.669004,3.396154 -4.143224,39.213076 -5.649246,5.881354 z m -50.851294,67.485527 -4.115618,-4.049078 12.89354,-49.737275 6.962455,-6.932676 z m 15.577553,-1.528174 1.263719,24.079453 -4.966129,1.99834 z m 30.150275,-17.466769 5.267501,2.363652 4.524969,44.29185 -4.334987,6.76416 z m -33.852685,43.544562 4.566245,3.53309 -2.059626,15.17228 -5.342871,2.18793 z"
       class="sticker" />
    <path
       style="fill:none;stroke:#000000;stroke-width:0.01603535;stroke-linecap:butt;stroke-linejoin:bevel;stroke-dasharray:none;stroke-dashoffset:0;stroke-opacity:1;stroke-miterlimit:4"
       inkscape:connector-curvature="0"
       id="path36"
       d="m 38.105098,102.26819 34.22743,9.64979 m -60.95088,-10.67155 18.80446,21.68975 M 36.887594,16.774232 21.147217,77.493261 m 0,0 11.875143,24.549619 m 3.865234,-85.268648 29.987451,41.724086"
       class="convex" />
    <path
       style="fill:none;stroke:#000000;stroke-width:0.01603535;stroke-linecap:butt;stroke-linejoin:bevel;stroke-dasharray:none;stroke-dashoffset:0;stroke-opacity:1;stroke-miterlimit:4"
       inkscape:connector-curvature="0"
       id="path38"
       d="m 11.381648,101.24643 21.640712,0.79645 m 39.310168,9.8751 -5.457483,-53.419662 M 36.887594,16.774232 36.72477,75.965087 m -6.538662,46.971093 2.836252,-20.8933 M 21.147217,77.493261 36.72477,75.965087 m -3.70241,26.077793 3.70241,-26.077793 m 0,0 35.607758,35.952893 M 66.875045,58.498318 71.998511,10.007734 M 36.72477,75.965087 66.875045,58.498318"
       class="concave" />
    <path
       style="fill:none;stroke:#ff0000;stroke-width:0.01603535;stroke-linecap:butt;stroke-linejoin:bevel;stroke-dasharray:none;stroke-dashoffset:0;stroke-opacity:1;stroke-miterlimit:4"
       inkscape:connector-curvature="0"
       id="path40"
       d="m 17.031599,73.444183 12.89354,-49.737275 6.962455,-6.932676 35.110917,-6.766498 4.669004,3.396154 -4.143224,39.213076 -5.649246,5.881354 5.267501,2.363652 4.524969,44.29185 -4.334987,6.76416 -34.67492,11.43039 0.44749,-21.08018 -1.380328,-26.303103 1.263719,24.079453 -4.966129,1.99834 4.566245,3.53309 -2.059626,15.17228 -5.342871,2.18793 L 5,124.60056 11.381648,101.24643 21.147217,77.493261 Z"
       class="outer" />
  </g>
  <g
     id="g52"
     transform="matrix(2.2,0,0,2.2,23.956268,23.248833)"
     style="stroke-width:0.01603535;stroke-miterlimit:4;stroke-dasharray:none">
    <path
       style="fill:#ffffff;fill-opacity:1;stroke:none;stroke-linecap:butt;stroke-linejoin:bevel;stroke-dasharray:none;stroke-width:0.01603535;stroke-miterlimit:4"
       inkscape:connector-curvature="0"
       id="path44"
       d="m 21.144849,230.24218 -5.634754,1.25813 -8.134012,-8.84984 -0.552369,-7.98976 z m 44.021435,41.19052 5.14669,2.6163 0.627123,11.7559 -4.676625,6.19509 z m -16.694516,-79.009 1.856301,5.46695 -14.71062,16.77715 -8.177221,1.74194 z M 6.823714,214.66071 5,204.95275 l 15.313209,-42.6024 5.681734,-1.0253 z m 20.616514,1.74903 5.725116,-0.74592 7.833071,10.23666 -1.665581,6.05112 z m 11.892606,15.54186 5.834997,0.63102 4.623621,9.73489 -3.277987,4.75269 z m 2.718646,26.0479 -10.26009,-5.31138 -12.903652,-17.13193 2.257111,-5.31401 z m 24.211992,34.00049 -10.247425,-5.77052 -16.362931,-22.97819 2.398364,-5.25178 z m -19.750007,-44.92979 10.347679,5.29033 10.520239,13.7405 -2.215099,5.33167 z"
       class="sticker" />
    <path
       style="fill:none;stroke:#000000;stroke-width:0.01603535;stroke-linecap:butt;stroke-linejoin:bevel;stroke-dasharray:none;stroke-dashoffset:0;stroke-opacity:1;stroke-miterlimit:4"
       inkscape:connector-curvature="0"
       id="path46"
       d="M 48.471768,192.4237 25.994943,161.32505 m -4.850094,68.91713 6.295379,-13.83244 M 46.513465,247.0702 42.05148,257.9995 M 27.440228,216.40974 6.823714,214.66071"
       class="convex" />
    <path
       style="fill:none;stroke:#000000;stroke-width:0.01603535;stroke-linecap:butt;stroke-linejoin:bevel;stroke-dasharray:none;stroke-dashoffset:0;stroke-opacity:1;stroke-miterlimit:4"
       inkscape:connector-curvature="0"
       id="path48"
       d="M 48.471768,192.4237 6.823714,214.66071 m 32.50912,17.29089 -18.187985,-1.70942 m 6.295379,-13.83244 21.03154,-23.98604 M 25.994943,161.32505 6.823714,214.66071 M 21.144849,230.24218 42.05148,257.9995 M 66.263472,291.99999 65.166284,271.4327 M 39.332834,231.9516 27.440228,216.40974 m -1.445285,-55.08469 44.945154,4.19678 M 65.166284,271.4327 46.513465,247.0702 M 65.166284,271.4327 42.05148,257.9995 m 4.461985,-10.9293 -7.180631,-15.1186 m 0,0 2.718646,26.0479 M 6.823714,214.66071 21.144849,230.24218"
       class="concave" />
    <path
       style="fill:none;stroke:#ff0000;stroke-width:0.01603535;stroke-linecap:butt;stroke-linejoin:bevel;stroke-dasharray:none;stroke-dashoffset:0;stroke-opacity:1;stroke-miterlimit:4"
       inkscape:connector-curvature="0"
       id="path50"
       d="m 70.312974,274.049 0.627123,11.7559 -4.676625,6.19509 -10.247425,-5.77052 -16.362931,-22.97819 2.398364,-5.25178 -10.26009,-5.31138 -12.903652,-17.13193 2.257111,-5.31401 -5.634754,1.25813 L 7.376083,222.65047 6.823714,214.66071 5,204.95275 l 15.313209,-42.6024 5.681734,-1.0253 19.630178,-36.13828 25.314976,40.33506 -22.468329,26.90187 1.856301,5.46695 -14.71062,16.77715 -8.177221,1.74194 5.725116,-0.74592 7.833071,10.23666 -1.665581,6.05112 5.834997,0.63102 4.623621,9.73489 -3.277987,4.75269 10.347679,5.29033 10.520239,13.7405 -2.215099,5.33167 z"
       class="outer" />
  </g>
</svg>
