<?xml version="1.0" encoding="UTF-8" standalone="no"?>
<svg
   xmlns:dc="http://purl.org/dc/elements/1.1/"
   xmlns:cc="http://creativecommons.org/ns#"
   xmlns:rdf="http://www.w3.org/1999/02/22-rdf-syntax-ns#"
   xmlns:svg="http://www.w3.org/2000/svg"
   xmlns="http://www.w3.org/2000/svg"
   xmlns:sodipodi="http://sodipodi.sourceforge.net/DTD/sodipodi-0.dtd"
   xmlns:inkscape="http://www.inkscape.org/namespaces/inkscape"
   version="1.1"
   width="45cm"
   height="70cm"
   viewBox="0 0 450 699.99998"
   id="svg56"
   sodipodi:docname="unicorn_new_page3.svg"
   inkscape:version="0.92.2 5c3e80d, 2017-08-06">
  <metadata
     id="metadata62">
    <rdf:RDF>
      <cc:Work
         rdf:about="">
        <dc:format>image/svg+xml</dc:format>
        <dc:type
           rdf:resource="http://purl.org/dc/dcmitype/StillImage" />
        <dc:title></dc:title>
      </cc:Work>
    </rdf:RDF>
  </metadata>
  <defs
     id="defs60" />
  <sodipodi:namedview
     pagecolor="#ffffff"
     bordercolor="#666666"
     borderopacity="1"
     objecttolerance="10"
     gridtolerance="10"
     guidetolerance="10"
     inkscape:pageopacity="0"
     inkscape:pageshadow="2"
     inkscape:window-width="1440"
     inkscape:window-height="805"
     id="namedview58"
     showgrid="false"
     inkscape:document-units="cm"
     units="cm"
     inkscape:zoom="1.1893044"
     inkscape:cx="353.60337"
     inkscape:cy="2261.3802"
     inkscape:window-x="0"
     inkscape:window-y="1"
     inkscape:window-maximized="1"
     inkscape:current-layer="svg56" />
  <style
     type="text/css"
     id="style2">
    path {
        fill: none;
        stroke-linecap: butt;
        stroke-linejoin: bevel;
        stroke-dasharray: none;
    }
    path.outer {
        stroke: #ff0000;
        stroke-dasharray: none;
        stroke-dashoffset: 0;
        stroke-width: 0.3;
        stroke-opacity: 1.0;
    }
    path.convex {
        stroke: #000000;
        stroke-dasharray: 0.50,1.00;
        stroke-dashoffset:0;
        stroke-width:0.2;
        stroke-opacity: 1.0
    }
    path.concave {
        stroke: #000000;
        stroke-dasharray: none;
        stroke-dashoffset: 0;
        stroke-width: 0.2;
        stroke-opacity: 1.0
    }
    path.freestyle {
        stroke: #000000;
        stroke-dasharray: none;
        stroke-dashoffset: 0;
        stroke-width: 0.2;
        stroke-opacity: 1.0
    }
    path.outer_background {
        stroke: #ffffff;
        stroke-opacity: 1.0;
        stroke-width: 0.5
    }
    path.inner_background {
        stroke: #ffffff;
        stroke-opacity: 1.0;
        stroke-width: 0.2
    }
    path.sticker {
        fill: #ffffff;
        stroke: none;
        fill-opacity: 1.0;
    }
    path.arrow {
        fill: #000;
    }
    text {
        font-style: normal;
        fill: #000000;
        fill-opacity: 1.0;
        stroke: none;
    }
    text, tspan {
        text-anchor:middle;
    }
    </style>
  <g
     id="g54"
     transform="matrix(2.2,0,0,2.2,27.096147,9.9377079)"
     style="stroke-width:0.01603535;stroke-miterlimit:4;stroke-dasharray:none">
    <g
       id="g12"
       style="stroke-width:0.01603535;stroke-miterlimit:4;stroke-dasharray:none">
      <path
         class="sticker"
         d="m 167.50913,79.541261 5.52963,5.356044 3.32683,35.128195 -4.70555,3.34531 z m -28.90718,-23.618698 -18.1976,4.48218 -0.98705,-1.186967 z m -0.78936,61.900947 -7.34518,-6.6405 -14.66254,-46.344739 3.89634,-4.260511 z m 34.06903,-96.275989 4.48398,7.032246 -3.6536,48.458829 -5.20287,2.502665 z"
         id="path4"
         inkscape:connector-curvature="0"
         style="fill:#ffffff;fill-opacity:1;stroke:none;stroke-linecap:butt;stroke-linejoin:bevel;stroke-dasharray:none;stroke-width:0.01603535;stroke-miterlimit:4" />
      <path
         class="convex"
         d="m 119.4173,59.217776 19.18465,-3.295213 m -0.78936,61.900947 29.69654,-38.282249 M 119.70121,60.57776 137.81259,117.82351 M 113.40508,34.830417 171.88162,21.547521"
         id="path6"
         inkscape:connector-curvature="0"
         style="fill:none;stroke:#000000;stroke-width:0.01603535;stroke-linecap:butt;stroke-linejoin:bevel;stroke-dasharray:none;stroke-dashoffset:0;stroke-opacity:1;stroke-miterlimit:4" />
      <path
         class="concave"
         d="M 113.40508,34.830417 133.2572,8.411999 m -19.85212,26.418418 25.19687,21.092146 m 33.05809,67.448247 -4.15091,-43.829549 m 0,0 4.37249,-57.99374 m -33.27967,34.375042 33.27967,-34.375042 m -34.06903,96.275989 0.78936,-61.900947 m 0,0 28.90718,23.618698"
         id="path8"
         inkscape:connector-curvature="0"
         style="fill:none;stroke:#000000;stroke-width:0.01603535;stroke-linecap:butt;stroke-linejoin:bevel;stroke-dasharray:none;stroke-dashoffset:0;stroke-opacity:1;stroke-miterlimit:4" />
      <path
         class="outer"
         d="m 113.40508,34.830417 -8.15582,-27.193606 28.00794,0.775188 38.62442,13.135522 4.48398,7.032246 -3.6536,48.458829 -5.20287,2.502665 5.52963,5.356044 3.32683,35.128195 -4.70555,3.34531 -33.84745,-5.5473 -7.34518,-6.6405 -14.66254,-46.344739 3.89634,-4.260511 18.90074,-4.655197 -18.1976,4.48218 -0.98705,-1.186967 z"
         id="path10"
         inkscape:connector-curvature="0"
         style="fill:none;stroke:#ff0000;stroke-width:0.01603535;stroke-linecap:butt;stroke-linejoin:bevel;stroke-dasharray:none;stroke-dashoffset:0;stroke-opacity:1;stroke-miterlimit:4" />
    </g>
    <g
       id="g22"
       style="stroke-width:0.01603535;stroke-miterlimit:4;stroke-dasharray:none">
      <path
         class="sticker"
         d="m 151.14788,291.99999 -7.85986,-7.15001 -17.21923,-48.26 3.73913,-4.39912 z m 5.28568,-164.62087 4.15533,-4.00831 4.50135,1.29345 1.39361,5.60279 z m -51.1843,77.66472 1.94886,-14.78012 19.95279,-38.97815 5.76614,-0.29132 z m 39.34035,-59.20013 -1.98062,-5.1014 2.50921,-3.12291 5.40824,0.83543 z m 5.93683,-7.38888 -3.05326,-4.90008 3.19013,-5.98147 5.77025,-0.19416 z m -17.60939,12.53942 0.62259,-5.73985 6.39042,-2.81978 4.65955,3.40909 z m 25.54697,80.54324 5.63969,7.41184 2.38014,28.35697 -4.74101,3.29484 z m 3.27882,39.06365 3.19997,4.80557 -5.49806,11.10454 -8.29687,5.48874 z m -38.04383,-61.46102 -3.90184,4.25546 -1.73292,-0.38475 -12.81499,-7.96699 z"
         id="path14"
         inkscape:connector-curvature="0"
         style="fill:#ffffff;fill-opacity:1;stroke:none;stroke-linecap:butt;stroke-linejoin:bevel;stroke-dasharray:none;stroke-width:0.01603535;stroke-miterlimit:4" />
      <path
         class="convex"
         d="m 145.594,165.73318 -12.67695,-14.73893 m 17.71145,1.90161 -17.71145,-1.90161 m 17.60939,-12.53942 -5.93683,7.38888 m 17.15323,124.75743 -3.27882,-39.06365 m -13.87441,-85.69378 -11.67256,5.15054 m -9.21804,58.14587 20.40446,-6.0268 m 15.20476,-56.12224 -2.87467,-19.61196 m 2.03046,104.15837 -28.6561,0.65337 m 26.62564,-104.81174 -5.90712,11.07571"
         id="path16"
         inkscape:connector-curvature="0"
         style="fill:none;stroke:#000000;stroke-width:0.01603535;stroke-linecap:butt;stroke-linejoin:bevel;stroke-dasharray:none;stroke-dashoffset:0;stroke-opacity:1;stroke-miterlimit:4" />
      <path
         class="concave"
         d="m 150.52644,138.45483 0.10206,14.44103 m -17.71145,-1.90161 -27.66779,54.04959 m 38.85421,-1.93052 -14.29555,29.07754 m 14.29555,-29.07754 -38.85421,1.93052 m 45.89862,86.95615 10.59496,-21.39885 M 145.594,165.73318 105.24926,205.04384 m 61.23459,-74.77679 -10.05029,-2.88793 m -51.1843,77.66472 18.44975,4.09628 m 6.10891,23.05074 21.33996,59.80913 m -6.55827,-146.15628 6.03889,7.05215 m -0.10206,-14.44103 8.78179,8.53625 m -8.16035,145.00891 7.31614,-60.4625"
         id="path18"
         inkscape:connector-curvature="0"
         style="fill:none;stroke:#000000;stroke-width:0.01603535;stroke-linecap:butt;stroke-linejoin:bevel;stroke-dasharray:none;stroke-dashoffset:0;stroke-opacity:1;stroke-miterlimit:4" />
      <path
         class="outer"
         d="m 160.58889,123.37081 4.50135,1.29345 1.39361,5.60279 -7.17562,16.72403 -8.67973,5.90478 -5.0345,12.83732 -1.49053,37.38014 14.36055,28.42417 5.63969,7.41184 2.38014,28.35697 -4.74101,3.29484 3.19997,4.80557 -5.49806,11.10454 -8.29687,5.48874 -7.85986,-7.15001 -17.21923,-48.26 3.73913,-4.39912 -6.10891,-23.05074 -3.90184,4.25546 -1.73292,-0.38475 -12.81499,-7.96699 1.94886,-14.78012 19.95279,-38.97815 5.76614,-0.29132 0.62259,-5.73985 6.39042,-2.81978 4.65955,3.40909 -1.98062,-5.1014 2.50921,-3.12291 5.40824,0.83543 -3.05326,-4.90008 3.19013,-5.98147 5.77025,-0.19416 z"
         id="path20"
         inkscape:connector-curvature="0"
         style="fill:none;stroke:#ff0000;stroke-width:0.01603535;stroke-linecap:butt;stroke-linejoin:bevel;stroke-dasharray:none;stroke-dashoffset:0;stroke-opacity:1;stroke-miterlimit:4" />
    </g>
    <g
       id="g32"
       style="stroke-width:0.01603535;stroke-miterlimit:4;stroke-dasharray:none">
      <path
         class="sticker"
         d="m 5,227.69982 0.00954,-16.49121 21.916313,-68.74517 5.640601,-1.23165 z m 43.77355,21.69239 5.568635,2.27763 3.598623,17.61351 -4.320945,3.8292 z m -2.242855,-25.58416 5.37182,4.0226 1.59983,18.24919 -4.728795,3.31237 z"
         id="path24"
         inkscape:connector-curvature="0"
         style="fill:#ffffff;fill-opacity:1;stroke:none;stroke-linecap:butt;stroke-linejoin:bevel;stroke-dasharray:none;stroke-width:0.01603535;stroke-miterlimit:4" />
      <path
         class="convex"
         d="M 46.530695,223.80805 31.902381,235.7213 M 53.619863,273.11255 31.902381,235.7213 M 48.77355,249.39221 46.530695,223.80805 M 51.045996,161.24473 32.566451,141.23179 M 53.619863,273.11255 48.77355,249.39221 m 0,0 -16.871169,-13.67091"
         id="path26"
         inkscape:connector-curvature="0"
         style="fill:none;stroke:#000000;stroke-width:0.01603535;stroke-linecap:butt;stroke-linejoin:bevel;stroke-dasharray:none;stroke-dashoffset:0;stroke-opacity:1;stroke-miterlimit:4" />
      <path
         class="concave"
         d="M 51.045996,161.24473 5,227.69982 M 46.530695,223.80805 5,227.69982 M 32.566451,141.23179 5,227.69982"
         id="path28"
         inkscape:connector-curvature="0"
         style="fill:none;stroke:#000000;stroke-width:0.01603535;stroke-linecap:butt;stroke-linejoin:bevel;stroke-dasharray:none;stroke-dashoffset:0;stroke-opacity:1;stroke-miterlimit:4" />
      <path
         class="outer"
         d="m 5,227.69982 0.00954,-16.49121 21.916313,-68.74517 5.640601,-1.23165 25.374365,-29.88062 -6.89482,49.89356 -4.515301,62.56332 5.37182,4.0226 1.59983,18.24919 -4.728795,3.31237 5.568635,2.27763 3.598623,17.61351 -4.320945,3.8292 -20.491669,18.88744 -1.225813,-56.27869 z"
         id="path30"
         inkscape:connector-curvature="0"
         style="fill:none;stroke:#ff0000;stroke-width:0.01603535;stroke-linecap:butt;stroke-linejoin:bevel;stroke-dasharray:none;stroke-dashoffset:0;stroke-opacity:1;stroke-miterlimit:4" />
    </g>
    <g
       id="g42"
       style="stroke-width:0.01603535;stroke-miterlimit:4;stroke-dasharray:none">
      <path
         class="sticker"
         d="m 57.940816,174.09272 11.774346,-6.33946 12.705266,-1.41212 3.421411,4.65051 z m 27.901023,-3.10107 -6.142802,-8.3245 -5.606912,-42.45518 4.379414,-5.02779 z m 14.533091,-40.07074 4.87433,3.09424 -0.91655,21.80037 -5.150323,3.47063 z m -1.192543,28.36524 5.137463,6.72415 0.31247,15.4006 -4.940403,2.98759 z"
         id="path34"
         inkscape:connector-curvature="0"
         style="fill:#ffffff;fill-opacity:1;stroke:none;stroke-linecap:butt;stroke-linejoin:bevel;stroke-dasharray:none;stroke-width:0.01603535;stroke-miterlimit:4" />
      <path
         class="convex"
         d="m 100.71405,244.43226 -21.349217,17.85145 m 21.010097,-131.3628 -14.533091,40.07074 m 13.850078,13.40684 -13.850078,-13.40684 m 13.340548,-11.7055 1.192543,-28.36524 m -0.683013,53.47758 -0.50953,-25.11234"
         id="path36"
         inkscape:connector-curvature="0"
         style="fill:none;stroke:#000000;stroke-width:0.01603535;stroke-linecap:butt;stroke-linejoin:bevel;stroke-dasharray:none;stroke-dashoffset:0;stroke-opacity:1;stroke-miterlimit:4" />
      <path
         class="concave"
         d="m 99.182387,159.28615 -13.340548,11.7055 m 13.850078,13.40684 -41.751101,-10.30577 m 20.530723,-58.90854 7.3703,55.80747 m 0,0 -27.901023,3.10107 m 42.773234,70.33954 -42.773234,-70.33954"
         id="path38"
         inkscape:connector-curvature="0"
         style="fill:none;stroke:#000000;stroke-width:0.01603535;stroke-linecap:butt;stroke-linejoin:bevel;stroke-dasharray:none;stroke-dashoffset:0;stroke-opacity:1;stroke-miterlimit:4" />
      <path
         class="outer"
         d="m 100.71405,244.43226 4.53519,47.56773 -25.884407,-29.71628 -21.424017,-88.19099 11.774346,-6.33946 12.705266,-1.41212 3.421411,4.65051 -6.142802,-8.3245 -5.606912,-42.45518 4.379414,-5.02779 21.903391,15.73673 4.87433,3.09424 -0.91655,21.80037 -5.150323,3.47063 5.137463,6.72415 0.31247,15.4006 -4.940403,2.98759 z"
         id="path40"
         inkscape:connector-curvature="0"
         style="fill:none;stroke:#ff0000;stroke-width:0.01603535;stroke-linecap:butt;stroke-linejoin:bevel;stroke-dasharray:none;stroke-dashoffset:0;stroke-opacity:1;stroke-miterlimit:4" />
    </g>
    <g
       id="g52"
       style="stroke-width:0.01603535;stroke-miterlimit:4;stroke-dasharray:none">
      <path
         class="sticker"
         d="m 41.102272,10.562475 2.55131,-4.001647 2.701991,0.118941 2.958659,4.244148 z m -7.568782,87.426871 -4.13927,-4.024893 3.500618,-13.836995 5.721071,-2.227515 z m 12.858784,-16.500235 3.796965,4.957736 -3.568966,12.656435 -5.595803,1.421378 z m 2.921958,-70.565194 4.192754,3.969133 -1.875173,7.852495 -5.613372,1.979828 z m -9.322174,17.17183 -4.757623,-3.985971 0.695406,-10.982305 5.172431,-2.564996 z m 3.257092,18.198908 5.7243,1.15934 3.687664,10.31594 -3.736499,4.401341 z M 38.615909,77.899943 35.25425,71.283664 37.910924,61.6527 43.498539,60.199465 Z m 10.308706,-15.728667 4.582375,3.512144 -1.567941,11.960953 -5.546775,3.844738 z m -9.51,-15.127659 -4.909746,-3.037706 0.39828,-13.068959 5.088909,-2.841205 z m 6.603826,-22.318244 4.52137,4.047602 -1.963753,15.295148 -5.326908,2.226532 z m -3.316466,82.072867 -3.550235,4.55293 -7.833199,-1.09336 -2.378784,-5.38049 z m -1.677505,-6.27358 4.16727,-3.995896 4.392724,1.276418 1.824707,5.737038 z m 10.384701,3.01756 -0.885535,5.29353 -3.680091,1.37615 -4.14157,-3.41366 z"
         id="path44"
         inkscape:connector-curvature="0"
         style="fill:#ffffff;fill-opacity:1;stroke:none;stroke-linecap:butt;stroke-linejoin:bevel;stroke-dasharray:none;stroke-width:0.01603535;stroke-miterlimit:4" />
      <path
         class="convex"
         d="M 41.02447,100.52466 33.53349,97.989346 M 43.24915,46.294655 39.992058,28.095747 m 2.709917,78.702493 8.707196,-3.25602 m -2.094939,-92.618303 -8.21196,-0.361442 m -12.162515,94.314845 13.762218,1.92092"
         id="path46"
         inkscape:connector-curvature="0"
         style="fill:none;stroke:#000000;stroke-width:0.01603535;stroke-linecap:butt;stroke-linejoin:bevel;stroke-dasharray:none;stroke-dashoffset:0;stroke-opacity:1;stroke-miterlimit:4" />
      <path
         class="concave"
         d="M 48.924615,62.171276 43.498539,60.199465 M 51.409171,103.54222 41.02447,100.52466 M 43.498539,60.199465 39.414615,47.043617 m 3.28736,59.754623 -1.677505,-6.27358 m 2.474069,-40.325195 -4.88263,17.700478 M 39.414615,47.043617 25.139743,60.515638 M 41.102272,10.562475 39.992058,28.095747 m 3.257092,18.198908 0.249389,13.90481 m -0.249389,-13.90481 -3.834535,0.748962 m 9.51,15.127659 -10.308706,15.728667 M 46.018441,24.725373 41.102272,10.562475 M 38.615909,77.899943 33.53349,97.989346 m 6.458568,-69.893599 -0.577443,18.94787 M 25.139743,60.515638 21.792888,40.055896 M 46.392274,81.489111 48.924615,62.171276 M 21.792888,40.055896 6.543439,51.372896 M 46.018441,24.725373 49.314232,10.923917 M 46.392274,81.489111 33.53349,97.989346 m 7.49098,2.535314 5.367804,-19.035549 M 42.701975,106.79824 33.53349,97.989346 M 43.24915,46.294655 46.018441,24.725373 M 48.924615,62.171276 43.24915,46.294655 m 3.143124,35.194456 -7.776365,-3.589168 m 7.402532,-53.17457 -6.026383,3.370374"
         id="path48"
         inkscape:connector-curvature="0"
         style="fill:none;stroke:#000000;stroke-width:0.01603535;stroke-linecap:butt;stroke-linejoin:bevel;stroke-dasharray:none;stroke-dashoffset:0;stroke-opacity:1;stroke-miterlimit:4" />
      <path
         class="outer"
         d="m 39.414615,47.043617 -4.909746,-3.037706 0.39828,-13.068959 5.088909,-2.841205 -4.757623,-3.985971 0.695406,-10.982305 5.172431,-2.564996 2.55131,-4.001647 2.701991,0.118941 2.958659,4.244148 4.192754,3.969133 -1.875173,7.852495 -5.613372,1.979828 4.52137,4.047602 -1.963753,15.295148 -5.326908,2.226532 5.7243,1.15934 3.687664,10.31594 -3.736499,4.401341 4.582375,3.512144 -1.567941,11.960953 -5.546775,3.844738 3.796965,4.957736 -4.289643,10.992017 -4.875126,3.085796 4.875126,-3.085796 3.684868,0.366318 1.824707,5.737038 -0.885535,5.29353 -3.680091,1.37615 -4.14157,-3.41366 -3.550235,4.55293 -7.833199,-1.09336 -2.378784,-5.38049 4.593733,-6.887974 -4.13927,-4.024893 3.500618,-13.836995 5.721071,-2.227515 L 35.25425,71.283664 37.910924,61.6527 43.498539,60.199465 25.139743,60.515638 6.543439,51.372896 5,34.894015 21.792888,40.055896 Z"
         id="path50"
         inkscape:connector-curvature="0"
         style="fill:none;stroke:#ff0000;stroke-width:0.01603535;stroke-linecap:butt;stroke-linejoin:bevel;stroke-miterlimit:4;stroke-dasharray:none;stroke-dashoffset:0;stroke-opacity:1"
         sodipodi:nodetypes="cccccccccccccccccccccccccccccccccccccccccccccc" />
    </g>
  </g>
</svg>
